<svg height="520" viewBox="0 0 550 520" width="550" xmlns="http://www.w3.org/2000/svg"><g fill="none" fill-rule="evenodd" transform=""><path d="m0 1h312v288h-312z" fill="#fff"/><g fill="#000"><path d="m83.8 79.792v-40.032h22.32v102.24h-22.32v-41.328h-33.84v41.328h-22.32v-102.24h22.32v40.032zm63.936-40.032h23.328l32.976 98.064-21.024 7.056-7.776-22.896h-32.4l-7.056 22.896-21.024-7.056zm21.888 62.784-8.064-23.904-1.872-10.656h-.576l-1.872 10.656-8.064 23.904zm93.024 18.576 13.824-13.824 15.264 15.264-19.44 19.44h-42.624l-18.432-18.432v-65.376l18.432-18.432h41.616l18.432 18.432v19.008h-22.32v-10.8l-5.76-5.76h-22.32l-5.76 5.76v48.96l5.76 5.76zm-189.216 89.864 30.96 46.8-18.144 12.096-28.368-42.768-7.92 8.784v31.104h-22.32v-102.24h22.32v39.312l38.016-42.192 16.416 14.688zm39.744 56.016v-102.24h70.992v20.88h-48.672v17.568h42.624v20.88h-42.624v22.032h48.672v20.88zm133.488-81.36h-28.656v22.464h28.656l5.184-5.328v-11.808zm6.048 44.928 23.76 24.336-15.984 15.696-40.608-41.616h-1.872v38.016h-22.32v-102.24h62.496l15.984 15.84v32.544l-15.984 15.84h-5.184l-5.04-2.448-.288.432zm-133.488 96.92v-19.44l18.288-18.288h37.872l20.736 7.056-6.768 20.016-18.144-6.192h-24.768l-4.896 4.896v3.6l1.872 3.888 45.936 19.872 6.048 11.376v19.44l-18.288 18.288h-38.016l-20.736-7.056 6.768-20.016 18.144 6.192h24.912l4.896-4.896v-3.6l-1.872-3.888-45.936-19.872zm112.176 31.824v32.688h-22.32v-102.24h60.048l18.432 18.288v32.976l-18.432 18.288zm28.08-48.672h-28.08v27.792h28.08l5.76-5.76v-16.272zm65.376-20.88h23.328l32.976 98.064-21.024 7.056-7.776-22.896h-32.4l-7.056 22.896-21.024-7.056zm21.888 62.784-8.064-23.904-1.872-10.656h-.576l-1.872 10.656-8.064 23.904zm93.024 18.576 13.824-13.824 15.264 15.264-19.44 19.44h-42.624l-18.432-18.432v-65.376l18.432-18.432h41.616l18.432 18.432v19.008h-22.32v-10.8l-5.76-5.76h-22.32l-5.76 5.76v48.96l5.76 5.76zm39.168 20.88v-102.24h70.992v20.88h-48.672v17.568h42.624v20.88h-42.624v22.032h48.672v20.88zm-265.536 121.112v-12.24l6.048-6.048h11.664l6.768 6.048v12.24l-6.048 6.048h-12.384zm83.088 3.888h-49.968v-19.44h13.824v-63.36h-13.824v-19.44h49.968v19.44h-13.824v63.36h13.824zm9.504-64.512v-19.44l18.288-18.288h37.872l20.736 7.056-6.768 20.016-18.144-6.192h-24.768l-4.896 4.896v3.6l1.872 3.888 45.936 19.872 6.048 11.376v19.44l-18.288 18.288h-38.016l-20.736-7.056 6.768-20.016 18.144 6.192h24.912l4.896-4.896v-3.6l-1.872-3.888-45.936-19.872zm133.056-16.848v81.36h-22.32v-81.36h-28.08v-20.88h78.48v20.88z"/><path d="m0 0h314v10h-314z"/></g></g></svg>