<?xml version="1.0" encoding="UTF-8"?>
<svg width="1023px" height="483px" viewBox="0 0 1023 483" version="1.1" xmlns="http://www.w3.org/2000/svg" xmlns:xlink="http://www.w3.org/1999/xlink">
    <!-- Generator: Sketch 50 (54983) - http://www.bohemiancoding.com/sketch -->
    <title>home page squares</title>
    <desc>Created with Sketch.</desc>
    <defs></defs>
    <g id="HOME" stroke="none" stroke-width="1" fill="none" fill-rule="evenodd">
        <g id="SCROLLDOWN-PAGE" transform="translate(-88.000000, -613.000000)" fill="#000000">
            <g id="HOME-PAGE" transform="translate(-2.000000, 2.000000)">
                <g id="home-page-squares" transform="translate(90.000000, 611.000000)">
                    <polygon id="Fill-1" points="151.6684 156.6892 140.6124 156.6892 140.6124 167.7452 140.6124 178.8002 140.6124 189.8562 151.6684 189.8562 151.6684 178.8002 151.6684 167.7452 162.7244 167.7452 162.7244 156.6892 162.7244 145.6332 151.6684 145.6332"></polygon>
                    <polygon id="Fill-2" points="140.6127 247.8991 140.6127 258.9551 151.6687 258.9551 151.6687 247.8991 151.6687 236.8431 140.6127 236.8431"></polygon>
                    <polygon id="Fill-3" points="141 215 141 226.056 152.056 226.056 152.056 237.111 163.111 237.111 163.111 226.056 163.111 215 152.056 215"></polygon>
                    <polygon id="Fill-3-Copy" points="193.923 226.9831 193.923 238.0391 204.979 238.0391 204.979 249.0941 216.034 249.0941 216.034 238.0391 216.034 226.9831 204.979 226.9831"></polygon>
                    <polygon id="Fill-4" points="140.6127 316.9968 140.6127 328.0528 151.6687 328.0528 151.6687 316.9968 151.6687 305.9408 140.6127 305.9408"></polygon>
                    <polygon id="Fill-5" points="151.6684 294.8855 151.6684 305.9415 162.7244 305.9415 162.7244 294.8855 162.7244 283.8295 151.6684 283.8295"></polygon>
                    <polygon id="Fill-6" points="140.612 408.207 151.668 408.207 151.668 397.151 140.612 397.151"></polygon>
                    <polygon id="Fill-7" points="151.6684 363.9831 140.6124 363.9831 140.6124 375.0391 151.6684 375.0391 162.7244 375.0391 162.7244 363.9831 162.7244 352.9271 151.6684 352.9271"></polygon>
                    <polygon id="Fill-8" points="140.613 455.193 151.669 455.193 151.669 444.137 140.613 444.137"></polygon>
                    <polygon id="Fill-9" points="140.613 477.304 151.669 477.304 151.669 466.248 140.613 466.248"></polygon>
                    <polygon id="Fill-10" points="151.6684 433.0818 151.6684 444.1378 162.7244 444.1378 162.7244 433.0818 162.7244 422.0258 151.6684 422.0258"></polygon>
                    <polygon id="Fill-11" points="909 92.056 920.056 92.056 920.056 81 909 81"></polygon>
                    <polygon id="Fill-12" points="960.2623 230.3816 949.2063 230.3816 949.2063 241.4376 949.2063 252.4926 960.2623 252.4926 971.3183 252.4926 971.3183 241.4376 971.3183 230.3816"></polygon>
                    <polygon id="Fill-13" points="651.7582 311.469 651.7582 322.525 662.8142 322.525 673.8692 322.525 673.8692 311.469 662.8142 311.469"></polygon>
                    <polygon id="Fill-14" points="856.2885 379.1853 856.2885 390.2413 881.1635 390.2413 906.0395 390.2413 906.0395 379.1853 881.1635 379.1853"></polygon>
                    <polygon id="Fill-15" points="436.0883 417.8801 436.0883 428.9361 447.1443 428.9361 458.1993 428.9361 458.1993 417.8801 447.1443 417.8801"></polygon>
                    <polygon id="Fill-16" points="701.509 333.58 712.565 333.58 712.565 322.524 701.509 322.524"></polygon>
                    <polygon id="Fill-17" points="701.509 355.692 712.565 355.692 712.565 344.636 701.509 344.636"></polygon>
                    <polygon id="Fill-18" points="701.5092 300.4133 701.5092 311.4693 712.5652 311.4693 712.5652 322.5243 723.6202 322.5243 723.6202 311.4693 723.6202 300.4133 712.5652 300.4133"></polygon>
                    <polygon id="Fill-19" points="762.315 311.469 773.371 311.469 773.371 300.413 762.315 300.413"></polygon>
                    <polygon id="Fill-20" points="823.1215 311.469 823.1215 300.413 812.0655 300.413 812.0655 311.469 801.0105 311.469 801.0105 322.525 812.0655 322.525 823.1215 322.525"></polygon>
                    <polygon id="Fill-21" points="850.76 344.636 861.816 344.636 861.816 333.58 850.76 333.58"></polygon>
                    <polygon id="Fill-22" points="861.8159 322.5246 872.8729 322.5246 872.8729 311.4686 872.8729 300.4136 861.8159 300.4136 850.7599 300.4136 850.7599 311.4686 861.8159 311.4686"></polygon>
                    <polygon id="Fill-23" points="900.5112 344.636 900.5112 355.692 911.5672 355.692 911.5672 344.636 911.5672 333.58 900.5112 333.58"></polygon>
                    <polygon id="Fill-24" points="911.5668 311.469 900.5108 311.469 900.5108 322.525 911.5668 322.525 922.6228 322.525 922.6228 311.469 922.6228 300.413 911.5668 300.413"></polygon>
                    <polygon id="Fill-25" points="950.262 344.636 961.318 344.636 961.318 333.58 950.262 333.58"></polygon>
                    <polygon id="Fill-26" points="950.2621 300.4133 950.2621 311.4693 961.3181 311.4693 961.3181 322.5243 972.3731 322.5243 972.3731 311.4693 972.3731 300.4133 961.3181 300.4133"></polygon>
                    <polygon id="Fill-27" points="1011.0681 300.4137 1000.0121 300.4137 1000.0121 311.4697 1011.0681 311.4697 1011.0681 322.5247 1022.1241 322.5247 1022.1241 300.4137"></polygon>
                    <polygon id="Fill-28" points="1000.0121 333.5803 1000.0121 344.6363 1011.0681 344.6363 1011.0681 333.5803 1011.0681 322.5243 1000.0121 322.5243"></polygon>
                    <polygon id="Fill-29" points="179.867 337.727 190.923 337.727 190.923 326.671 179.867 326.671"></polygon>
                    <polygon id="Fill-30" points="190.923 315.615 201.979 315.615 201.979 304.559 190.923 304.559"></polygon>
                    <polygon id="Fill-31" points="201.9789 282.448 190.9229 282.448 179.8669 282.448 179.8669 293.504 190.9229 293.504 201.9789 293.504 213.0349 293.504 224.0899 293.504 224.0899 282.448 213.0349 282.448"></polygon>
                    <polygon id="Fill-32" points="773.3705 379.1853 762.3145 379.1853 751.2595 379.1853 751.2595 390.2413 762.3145 390.2413 773.3705 390.2413 784.4265 390.2413 795.4815 390.2413 795.4815 379.1853 784.4265 379.1853"></polygon>
                    <polygon id="Fill-33" points="201.979 337.726 213.035 337.726 213.035 326.67 201.979 326.67"></polygon>
                    <polygon id="Fill-34" points="241.056 316.056 241.056 305 230 305 230 316.056 230 327.112 241.056 327.112"></polygon>
                    <polygon id="Fill-34-Copy" points="252.056 186.472 252.056 175.416 241 175.416 241 186.472 241 197.528 252.056 197.528"></polygon>
                    <polygon id="Fill-35" points="241 293.056 252.056 293.056 252.056 282 241 282"></polygon>
                    <polygon id="Fill-35-Copy" points="241 245.056 252.056 245.056 252.056 234 241 234"></polygon>
                    <polygon id="Fill-36" points="290.424 293.504 301.48 293.504 301.48 282.448 290.424 282.448"></polygon>
                    <polygon id="Fill-37" points="340.1747 293.5036 329.1187 293.5036 329.1187 304.5596 329.1187 315.6146 340.1747 315.6146 340.1747 304.5596 351.2307 304.5596 351.2307 293.5036 351.2307 282.4476 340.1747 282.4476"></polygon>
                    <polygon id="Fill-38" points="329.119 337.727 340.175 337.727 340.175 326.671 329.119 326.671"></polygon>
                    <polygon id="Fill-39" points="190.923 362.601 201.979 362.601 201.979 351.545 190.923 351.545"></polygon>
                    <polygon id="Fill-40" points="229.618 384.713 240.674 384.713 240.674 373.657 229.618 373.657"></polygon>
                    <polygon id="Fill-41" points="240.6738 362.6013 240.6738 373.6573 251.7298 373.6573 251.7298 362.6013 251.7298 351.5453 240.6738 351.5453"></polygon>
                    <polygon id="Fill-42" points="279.3686 351.5456 279.3686 362.6016 290.4246 362.6016 290.4246 373.6566 301.4796 373.6566 301.4796 362.6016 301.4796 351.5456 290.4246 351.5456"></polygon>
                    <polygon id="Fill-43" points="340.1747 362.6013 329.1187 362.6013 329.1187 373.6573 340.1747 373.6573 351.2307 373.6573 351.2307 362.6013 351.2307 351.5453 340.1747 351.5453"></polygon>
                    <polygon id="Fill-44" points="812.066 33.694 823.122 33.694 823.122 22.638 812.066 22.638"></polygon>
                    <polygon id="Fill-45" points="823.1211 0.5274 812.0651 0.5274 812.0651 11.5834 823.1211 11.5834 823.1211 22.6384 834.1781 22.6384 834.1781 11.5834 834.1781 0.5274"></polygon>
                    <polygon id="Fill-46" points="861.815 55.806 872.872 55.806 872.872 44.75 861.815 44.75"></polygon>
                    <polygon id="Fill-47" points="872.8722 0.5274 872.8722 11.5834 861.8152 11.5834 861.8152 22.6384 872.8722 22.6384 883.9282 22.6384 883.9282 11.5834 883.9282 0.5274"></polygon>
                    <polygon id="Fill-48" points="812.0659 69.6257 812.0659 80.6817 823.1219 80.6817 823.1219 91.7367 834.1769 91.7367 834.1769 80.6817 834.1769 69.6257 823.1219 69.6257"></polygon>
                    <polygon id="Fill-49" points="872.8725 91.737 883.9285 91.737 883.9285 80.681 883.9285 69.626 872.8725 69.626 872.8725 80.681 861.8155 80.681 861.8155 91.737 861.8155 102.793 872.8725 102.793"></polygon>
                    <polygon id="Fill-50" points="226.854 409.589 237.91 409.589 237.91 398.533 226.854 398.533"></polygon>
                    <polygon id="Fill-51" points="188.1591 434.4636 177.1031 434.4636 177.1031 445.5196 188.1591 445.5196 199.2151 445.5196 199.2151 434.4636 199.2151 423.4076 188.1591 423.4076"></polygon>
                    <polygon id="Fill-52" points="226.854 467.631 237.91 467.631 237.91 456.575 226.854 456.575"></polygon>
                    <polygon id="Fill-53" points="226.8539 423.4079 226.8539 434.4639 237.9099 434.4639 237.9099 445.5189 248.9649 445.5189 248.9649 434.4639 248.9649 423.4079 237.9099 423.4079"></polygon>
                    <polygon id="Fill-54" points="651.7582 381.9489 651.7582 393.0049 662.8142 393.0049 662.8142 404.0599 673.8692 404.0599 673.8692 393.0049 673.8692 381.9489 662.8142 381.9489"></polygon>
                    <polygon id="Fill-55" points="651.758 415.116 662.814 415.116 662.814 404.06 651.758 404.06"></polygon>
                    <polygon id="Fill-56" points="651.758 437.227 662.814 437.227 662.814 426.171 651.758 426.171"></polygon>
                    <polygon id="Fill-57" points="701.5092 426.1716 701.5092 437.2276 712.5652 437.2276 712.5652 426.1716 712.5652 415.1156 701.5092 415.1156"></polygon>
                    <polygon id="Fill-58" points="712.5649 393.0046 701.5089 393.0046 701.5089 404.0606 712.5649 404.0606 723.6209 404.0606 723.6209 393.0046 723.6209 381.9486 712.5649 381.9486"></polygon>
                    <polygon id="Fill-59" points="447.144 455.1931 436.088 455.1931 436.088 466.2491 447.144 466.2491 458.2 466.2491 458.2 455.1931 458.2 444.1371 447.144 444.1371"></polygon>
                    <polygon id="Fill-60" points="11.0556 215.2035 -0.0004 215.2035 -0.0004 226.2595 11.0556 226.2595 11.0556 237.3155 22.1116 237.3155 22.1116 226.2595 22.1116 215.2035"></polygon>
                    <polygon id="Fill-61" points="0 248.371 11.056 248.371 11.056 237.315 0 237.315"></polygon>
                    <polygon id="Fill-62" points="60.806 226.26 71.862 226.26 71.862 215.204 60.806 215.204"></polygon>
                    <polygon id="Fill-63" points="100 270.056 111.056 270.056 111.056 259 100 259"></polygon>
                    <polygon id="Fill-63-Copy" points="194 194.6231 205.056 194.6231 205.056 183.5671 194 183.5671"></polygon>
                    <polygon id="Fill-64" points="55.278 322.525 66.334 322.525 66.334 311.469 55.278 311.469"></polygon>
                    <polygon id="Fill-65" points="612.051 437.227 623.107 437.227 623.107 426.171 612.051 426.171"></polygon>
                    <polygon id="Fill-66" points="612.051 482.832 623.107 482.832 623.107 471.776 612.051 471.776"></polygon>
                    <polygon id="Fill-67" points="1000.012 428.936 1011.068 428.936 1011.068 417.88 1000.012 417.88"></polygon>
                    <polygon id="Fill-68" points="795 379.056 806.056 379.056 806.056 368 795 368"></polygon>
                    <polygon id="Fill-68-Copy" points="783 263.056 794.056 263.056 794.056 252 783 252"></polygon>
                    <polygon id="Fill-69" points="789.955 333.58 801.011 333.58 801.011 322.524 789.955 322.524"></polygon>
                    <polygon id="Fill-70" points="762.315 355.692 773.371 355.692 773.371 344.636 762.315 344.636"></polygon>
                    <polygon id="Fill-71" points="99.5014 215.2038 99.5014 226.2598 99.5014 237.3148 110.5574 237.3148 121.6124 237.3148 121.6124 226.2598 121.6124 215.2038 110.5574 215.2038"></polygon>
                    <polygon id="Fill-72" points="6.056 388.567 17.112 388.567 17.112 377.511 6.056 377.511"></polygon>
                    <polygon id="Fill-73" points="6.056 410.678 17.112 410.678 17.112 399.622 6.056 399.622"></polygon>
                    <polygon id="Fill-74" points="6.0556 355.4001 6.0556 366.4561 17.1116 366.4561 17.1116 377.5111 28.1666 377.5111 28.1666 366.4561 28.1666 355.4001 17.1116 355.4001"></polygon>
                    <polygon id="Fill-75" points="77.9174 388.5671 77.9174 377.5111 66.8614 377.5111 66.8614 366.4561 77.9174 366.4561 77.9174 355.4001 66.8614 355.4001 55.8064 355.4001 55.8064 366.4561 55.8064 377.5111 55.8064 388.5671 66.8614 388.5671 66.8614 399.6231 66.8614 410.6781 77.9174 410.6781 88.9734 410.6781 88.9734 399.6231 77.9174 399.6231"></polygon>
                    <polygon id="Fill-76" points="88.974 366.456 100.03 366.456 100.03 355.4 88.974 355.4"></polygon>
                    <polygon id="Fill-77" points="105.5571 388.5671 105.5571 399.6231 116.6131 399.6231 116.6131 388.5671 116.6131 377.5111 105.5571 377.5111"></polygon>
                    <polygon id="Fill-78" points="188.395 405.15 199.451 405.15 199.451 394.094 188.395 394.094"></polygon>
                    <polygon id="Fill-79" points="284.896 431.7 295.952 431.7 295.952 420.644 284.896 420.644"></polygon>
                    <polygon id="Fill-80" points="384 429.056 395.056 429.056 395.056 418 384 418"></polygon>
                    <polygon id="Fill-80-Copy-2" points="363 328.056 374.056 328.056 374.056 317 363 317"></polygon>
                    <polygon id="Fill-80-Copy" points="363 304.056 374.056 304.056 374.056 293 363 293"></polygon>
                    <polygon id="Fill-81" points="488.146 467.631 499.202 467.631 499.202 456.575 488.146 456.575"></polygon>
                    <polygon id="Fill-82" points="814.83 428.936 825.886 428.936 825.886 417.88 814.83 417.88"></polygon>
                    <polygon id="Fill-83" points="839.7045 407.5886 839.7045 418.6446 839.7045 429.6996 850.7605 429.6996 861.8155 429.6996 861.8155 418.6446 861.8155 407.5886 850.7605 407.5886"></polygon>
                    <polygon id="Fill-6" points="839 203.056 850.056 203.056 850.056 192 839 192"></polygon>
                    <polygon id="Fill-6-Copy" points="839 178.8007 850.056 178.8007 850.056 167.7447 839 167.7447"></polygon>
                    <polygon id="Fill-7" points="795.6684 228.9831 784.6124 228.9831 784.6124 240.0391 795.6684 240.0391 806.7244 240.0391 806.7244 228.9831 806.7244 217.9271 795.6684 217.9271"></polygon>
                    <polygon id="Fill-10" points="839.6684 228.0818 839.6684 239.1378 850.7244 239.1378 850.7244 228.0818 850.7244 217.0258 839.6684 217.0258"></polygon>
                    <polygon id="Fill-40" points="897.618 149.713 908.674 149.713 908.674 138.657 897.618 138.657"></polygon>
                    <polygon id="Fill-41" points="908.6738 127.6013 908.6738 138.6573 919.7298 138.6573 919.7298 127.6013 919.7298 116.5453 908.6738 116.5453"></polygon>
                    <polygon id="Fill-42" points="967.3686 146.5456 967.3686 157.6016 978.4246 157.6016 978.4246 168.6566 989.4796 168.6566 989.4796 157.6016 989.4796 146.5456 978.4246 146.5456"></polygon>
                    <polygon id="Fill-43" points="878.1747 247.6013 867.1187 247.6013 867.1187 258.6573 878.1747 258.6573 889.2307 258.6573 889.2307 247.6013 889.2307 236.5453 878.1747 236.5453"></polygon>
                    <polygon id="Fill-50" points="914.854 204.589 925.91 204.589 925.91 193.533 914.854 193.533"></polygon>
                    <polygon id="Fill-53" points="914.8539 218.4079 914.8539 229.4639 925.9099 229.4639 925.9099 240.5189 936.9649 240.5189 936.9649 229.4639 936.9649 218.4079 925.9099 218.4079"></polygon>
                    <polygon id="Fill-75" points="765.9174 183.5671 765.9174 172.5111 754.8614 172.5111 754.8614 161.4561 765.9174 161.4561 765.9174 150.4001 754.8614 150.4001 743.8064 150.4001 743.8064 161.4561 743.8064 172.5111 743.8064 183.5671 754.8614 183.5671 754.8614 194.6231 754.8614 205.6781 765.9174 205.6781 776.9734 205.6781 776.9734 194.6231 765.9174 194.6231"></polygon>
                    <polygon id="Fill-76" points="776.974 161.456 788.03 161.456 788.03 150.4 776.974 150.4"></polygon>
                    <polygon id="Fill-77" points="793.5571 183.5671 793.5571 194.6231 804.6131 194.6231 804.6131 183.5671 804.6131 172.5111 793.5571 172.5111"></polygon>
                    <polygon id="Fill-78" points="876 202.056 887.056 202.056 887.056 191 876 191"></polygon>
                    <polygon id="Fill-78-Copy" points="875 178.056 886.056 178.056 886.056 167 875 167"></polygon>
                </g>
            </g>
        </g>
    </g>
</svg>