<svg height="483" viewBox="0 0 1023 483" width="1023" xmlns="http://www.w3.org/2000/svg"><g fill="#1e1e1e" fill-rule="evenodd" transform=""><path d="m151.6684 156.6892h-11.056v11.056 11.055 11.056h11.056v-11.056-11.055h11.056v-11.056-11.056h-11.056z"/><path d="m140.6127 247.8991v11.056h11.056v-11.056-11.056h-11.056z"/><path d="m140.6127 214.7321v11.056h11.056v11.055h11.055v-11.055-11.056h-11.055z"/><path d="m140.6127 316.9968v11.056h11.056v-11.056-11.056h-11.056z"/><path d="m151.6684 294.8855v11.056h11.056v-11.056-11.056h-11.056z"/><path d="m140.612 408.207h11.056v-11.056h-11.056z"/><path d="m151.6684 363.9831h-11.056v11.056h11.056 11.056v-11.056-11.056h-11.056z"/><path d="m140.613 455.193h11.056v-11.056h-11.056z"/><path d="m140.613 477.304h11.056v-11.056h-11.056z"/><path d="m151.6684 433.0818v11.056h11.056v-11.056-11.056h-11.056z"/><path d="m902.511 11.056h11.056v-11.056h-11.056z"/><path d="m950.2623.3816h-11.056v11.056 11.055h11.056 11.056v-11.055-11.056z"/><path d="m651.7582 311.469v11.056h11.056 11.055v-11.056h-11.055z"/><path d="m856.2885 379.1853v11.056h24.875 24.876v-11.056h-24.876z"/><path d="m436.0883 417.8801v11.056h11.056 11.055v-11.056h-11.055z"/><path d="m701.509 333.58h11.056v-11.056h-11.056z"/><path d="m701.509 355.692h11.056v-11.056h-11.056z"/><path d="m701.5092 300.4133v11.056h11.056v11.055h11.055v-11.055-11.056h-11.055z"/><path d="m762.315 311.469h11.056v-11.056h-11.056z"/><path d="m823.1215 311.469v-11.056h-11.056v11.056h-11.055v11.056h11.055 11.056z"/><path d="m850.76 344.636h11.056v-11.056h-11.056z"/><path d="m861.8159 322.5246h11.057v-11.056-11.055h-11.057-11.056v11.055h11.056z"/><path d="m900.5112 344.636v11.056h11.056v-11.056-11.056h-11.056z"/><path d="m911.5668 311.469h-11.056v11.056h11.056 11.056v-11.056-11.056h-11.056z"/><path d="m950.262 344.636h11.056v-11.056h-11.056z"/><path d="m950.2621 300.4133v11.056h11.056v11.055h11.055v-11.055-11.056h-11.055z"/><path d="m1011.0681 300.4137h-11.056v11.056h11.056v11.055h11.056v-22.111z"/><path d="m1000.0121 333.5803v11.056h11.056v-11.056-11.056h-11.056z"/><path d="m179.867 337.727h11.056v-11.056h-11.056z"/><path d="m190.923 315.615h11.056v-11.056h-11.056z"/><path d="m201.9789 282.448h-11.056-11.056v11.056h11.056 11.056 11.056 11.055v-11.056h-11.055z"/><path d="m773.3705 379.1853h-11.056-11.055v11.056h11.055 11.056 11.056 11.055v-11.056h-11.055z"/><path d="m201.979 337.726h11.056v-11.056h-11.056z"/><path d="m240.6738 315.615v-11.056h-11.056v11.056 11.056h11.056z"/><path d="m240.674 293.504h11.056v-11.056h-11.056z"/><path d="m290.424 293.504h11.056v-11.056h-11.056z"/><path d="m340.1747 293.5036h-11.056v11.056 11.055h11.056v-11.055h11.056v-11.056-11.056h-11.056z"/><path d="m329.119 337.727h11.056v-11.056h-11.056z"/><path d="m190.923 362.601h11.056v-11.056h-11.056z"/><path d="m229.618 384.713h11.056v-11.056h-11.056z"/><path d="m240.6738 362.6013v11.056h11.056v-11.056-11.056h-11.056z"/><path d="m279.3686 351.5456v11.056h11.056v11.055h11.055v-11.055-11.056h-11.055z"/><path d="m340.1747 362.6013h-11.056v11.056h11.056 11.056v-11.056-11.056h-11.056z"/><path d="m812.066 33.694h11.056v-11.056h-11.056z"/><path d="m823.1211.5274h-11.056v11.056h11.056v11.055h11.057v-11.055-11.056z"/><path d="m861.815 55.806h11.057v-11.056h-11.057z"/><path d="m872.8722.5274v11.056h-11.057v11.055h11.057 11.056v-11.055-11.056z"/><path d="m812.0659 69.6257v11.056h11.056v11.055h11.055v-11.055-11.056h-11.055z"/><path d="m872.8725 91.737h11.056v-11.056-11.055h-11.056v11.055h-11.057v11.056 11.056h11.057z"/><path d="m226.854 409.589h11.056v-11.056h-11.056z"/><path d="m188.1591 434.4636h-11.056v11.056h11.056 11.056v-11.056-11.056h-11.056z"/><path d="m226.854 467.631h11.056v-11.056h-11.056z"/><path d="m226.8539 423.4079v11.056h11.056v11.055h11.055v-11.055-11.056h-11.055z"/><path d="m651.7582 381.9489v11.056h11.056v11.055h11.055v-11.055-11.056h-11.055z"/><path d="m651.758 415.116h11.056v-11.056h-11.056z"/><path d="m651.758 437.227h11.056v-11.056h-11.056z"/><path d="m701.5092 426.1716v11.056h11.056v-11.056-11.056h-11.056z"/><path d="m712.5649 393.0046h-11.056v11.056h11.056 11.056v-11.056-11.056h-11.056z"/><path d="m447.144 455.1931h-11.056v11.056h11.056 11.056v-11.056-11.056h-11.056z"/><path d="m11.0556 215.2035h-11.056v11.056h11.056v11.056h11.056v-11.056-11.056z"/><path d="m0 248.371h11.056v-11.056h-11.056z"/><path d="m60.806 226.26h11.056v-11.056h-11.056z"/><path d="m99.501 270.482h11.056v-11.056h-11.056z"/><path d="m55.278 322.525h11.056v-11.056h-11.056z"/><path d="m612.051 437.227h11.056v-11.056h-11.056z"/><path d="m612.051 482.832h11.056v-11.056h-11.056z"/><path d="m1000.012 428.936h11.056v-11.056h-11.056z"/><path d="m795.482 379.185h11.056v-11.056h-11.056z"/><path d="m789.955 333.58h11.056v-11.056h-11.056z"/><path d="m762.315 355.692h11.056v-11.056h-11.056z"/><path d="m99.5014 215.2038v11.056 11.055h11.056 11.055v-11.055-11.056h-11.055z"/><path d="m6.056 388.567h11.056v-11.056h-11.056z"/><path d="m6.056 410.678h11.056v-11.056h-11.056z"/><path d="m6.0556 355.4001v11.056h11.056v11.055h11.055v-11.055-11.056h-11.055z"/><path d="m77.9174 388.5671v-11.056h-11.056v-11.055h11.056v-11.056h-11.056-11.055v11.056 11.055 11.056h11.055v11.056 11.055h11.056 11.056v-11.055h-11.056z"/><path d="m88.974 366.456h11.056v-11.056h-11.056z"/><path d="m105.5571 388.5671v11.056h11.056v-11.056-11.056h-11.056z"/><path d="m188.395 405.15h11.056v-11.056h-11.056z"/><path d="m284.896 431.7h11.056v-11.056h-11.056z"/><path d="m384.398 428.936h11.056v-11.056h-11.056z"/><path d="m488.146 467.631h11.056v-11.056h-11.056z"/><path d="m814.83 428.936h11.056v-11.056h-11.056z"/><path d="m839.7045 407.5886v11.056 11.055h11.056 11.055v-11.055-11.056h-11.055z"/></g></svg>