<svg height="470" viewBox="0 0 1184 470" width="1184" xmlns="http://www.w3.org/2000/svg"><g fill="#fff" fill-rule="evenodd"><path d="m113.256 38.9337301 24.08 36.4-14.112 9.408-22.064-33.264-6.16 6.832v24.192h-17.36v-79.52h17.36v30.576l29.568-32.816 12.768 11.424zm49.84-35.952h18.144l25.648 76.272-16.352 5.488-6.048-17.808h-25.2l-5.488 17.808-16.352-5.488zm17.024 48.832-6.272-18.592-1.456-8.288h-.448l-1.456 8.288-6.272 18.592zm73.136-32.592h-22.288v17.472h22.288l4.032-4.144v-9.184zm4.704 34.944 18.48 18.928-12.432 12.208-31.584-32.368h-1.456v29.568h-17.36v-79.52h48.608l12.432 12.32v25.312l-12.432 12.32h-4.032l-3.92-1.904-.224.336zm61.04-34.944v63.28h-17.36v-63.28h-21.84v-16.24h61.04v16.24zm65.184 63.28h-38.864v-15.12h10.752v-49.28h-10.752v-15.12h38.864v15.12h-10.752v49.28h10.752zm27.44-41.664v41.664h-17.36v-79.52h15.568l26.096 41.776 2.912 7.392h.448l-1.232-7.504v-41.664h17.36v79.52h-15.568l-26.096-41.776-2.912-7.392h-.448zm92.736 41.664h-38.864v-15.12h10.752v-49.28h-10.752v-15.12h38.864v15.12h-10.752v49.28h10.752zm-503.328 45.8239999v-15.12l14.224-14.2239999h29.456l16.128 5.4879999-5.264 15.568-14.112-4.816h-19.264l-3.808 3.808v2.8l1.456 3.024 35.728 15.456 4.704 8.848v15.12l-14.224 14.224h-29.568l-16.128-5.488 5.264-15.568 14.112 4.816h19.376l3.808-3.808v-2.8l-1.456-3.024-35.728-15.456zm69.888 50.176v-79.5199999h55.216v16.2399999h-37.856v13.664h33.152v16.24h-33.152v17.136h37.856v16.24zm93.408 14h-6.72v-14h-9.296l-14.336-14.336v-50.848l14.336-14.3359999h32.368l14.336 14.3359999v14.784h-17.36v-8.4l-4.48-4.48h-17.36l-4.48 4.48v38.08l4.48 4.48h18.144l10.752-10.752 11.872 11.872-15.12 15.12h-14.896v1.12h2.912l9.072 9.072v11.424l-9.072 9.072h-11.872v-12.88h6.72l.784-.784v-2.24zm112.896-14h-17.248l-25.312-76.384 16.016-5.3759999 16.24 48.9439999 1.456 8.288h.448l1.456-8.288 16.24-48.9439999 16.016 5.3759999zm32.032 0v-79.5199999h55.216v16.2399999h-37.856v13.664h33.152v16.24h-33.152v17.136h37.856v16.24zm-11.2 52.432 24.08 36.4-14.112 9.408-22.064-33.264-6.16 6.832v24.192h-17.36v-79.52h17.36v30.576l29.568-32.816 12.768 11.424zm49.84-35.952h18.144l25.648 76.272-16.352 5.488-6.048-17.808h-25.2l-5.488 17.808-16.352-5.488zm17.024 48.832-6.272-18.592-1.456-8.288h-.448l-1.456 8.288-6.272 18.592zm67.088-32.592v63.28h-17.36v-63.28h-21.84v-16.24h61.04v16.24zm65.184 63.28h-38.864v-15.12h10.752v-49.28h-10.752v-15.12h38.864v15.12h-10.752v49.28h10.752zm10.08 0v-79.52h17.36v63.28h36.736v16.24z" transform="translate(309 37)"/><g transform=""><path d="m105.534 227.397726h11.056v-10.455372h-11.056z"/><path d="m1011.326 204.698712h11.056v-10.455372h-11.056z"/><path d="m1010.839 52.7383501h11.056v-10.4553722h-11.056z"/><path d="m1032.9519 31.828173v-10.4553722h-11.057v10.4553722 10.4553723h11.057z"/><path d="m775.2292 441.42608v10.455373 10.454426h11.057v-10.454426-10.455373-10.455372h-11.057z"/><path d="m987.232 261.377686h11.056v-10.455372h-11.056z"/><path d="m1020.8396 86.7169859v10.4553722h11.056v10.4544269h11.056v-10.4544269-10.4553722h-11.056z"/><path d="m1020.839 128.537907h11.056v-10.455372h-11.056z"/><path d="m306.916 109.778571h11.056v-10.4553718h-11.056z"/><path d="m871.147 261.377686h11.056v-10.455372h-11.056z"/><path d="m487.4026 448.674672v10.455372h11.056v-10.455372-10.455372h-11.056z"/><path d="m1060.84 204.337465h11.056v-10.455372h-11.056z"/><path d="m1115.584 204.337465h11.057v-10.455372h-11.057z"/><path d="m1115.584 334.202153h11.057v-10.455372h-11.057z"/><path d="m1115.584 104.550885h11.057v-10.4553719h-11.057z"/><path d="m1071.8962 162.515976h-11.056v10.456318h11.056 11.056v-10.456318-10.455372h-11.056z"/><path d="m963.1765 194.243151v10.455372h11.056v10.454427h11.055v-10.454427-10.455372h-11.055z"/><path d="m642.561 352.859356h11.056v-10.455372h-11.056z"/><path d="m1060.841 269.680704h11.056v-10.455372h-11.056z"/><path d="m1071.8962 227.860728h-11.056v10.455373h11.056 11.056v-10.455373-10.455372h-11.056z"/><path d="m223.998 128.075473h11.056v-10.455372h-11.056z"/><path d="m179.776 194.726579h11.056v-10.455372h-11.056z"/><path d="m179.7756 163.360936v10.455372h11.056v10.454426h11.055v-10.454426-10.455372h-11.055z"/><path d="m223.9983 142.450853v10.455372h11.056v10.454427h11.055v-10.454427-10.455372h-11.055z"/><path d="m235.054 194.726107v-10.455373-10.454426h-11.056v10.454426 10.455373z"/><path d="m264.7488 142.450853v10.455372 10.454427 10.455372 10.455372h11.056v-10.455372-10.455372h11.055v-10.454427-10.455372h-11.055z"/><path d="m637.0339 5.22740241v10.45631789h11.056v10.4534809h11.055v-10.4534809-10.45631789h-11.055z"/><path d="m697.8396 15.6834366h-11.056v10.4544266h11.056 11.056v-10.4544266-10.45631789h-11.056z"/><path d="m747.591 15.6830584h11.056v-10.45631796h-11.056z"/><path d="m786.2859 5.22740241v10.45631789h11.055v10.4534809h11.056v-10.4534809-10.45631789h-11.056z"/><path d="m836.036 36.5938028h11.056v-10.4563179h-11.056z"/><path d="m836.036 57.5036016h11.056v-10.4563179h-11.056z"/><path d="m858.1472 15.6834366v-10.45631789h-11.056v10.45631789 10.4544266h11.056z"/><path d="m896.8425 36.5935191v-10.4563179h11.056v-10.4534809-10.45631789h-11.056-11.056v10.45631789 10.4534809 10.4563179 10.4544266h11.056z"/><path d="m987.895 293.204346h11.056v-10.455372h-11.056z"/><path d="m185.3035 218.249748h-11.056v10.455373h11.056 11.056v-10.455373-10.455372h-11.056z"/><path d="m223.9983 207.79466v10.455372h11.056v10.454427h11.055v-10.454427-10.455372h-11.055z"/><path d="m264.748 260.069819h11.056v-10.455372h-11.056z"/><path d="m264.7488 207.79466v10.455372 10.454427h11.056 11.055v-10.454427-10.455372h-11.055z"/><path d="m931.954 237.853099h11.056v-10.455373h-11.056z"/><path d="m514.934 360.338692h11.056v-10.455372h-11.056z"/><path d="m356.6664 448.674861h-11.056v10.455372h11.056v10.454427h11.056v-10.454427-10.455372z"/><path d="m1020.8396 348.094294v10.455372h11.056v10.454427h11.056v-10.454427-10.455372h-11.056z"/><path d="m1020.84 389.914648h11.056v-10.455372h-11.056z"/><path d="m174.247 314.959577h11.056v-10.455372h-11.056z"/><path d="m185.3035 283.594501v10.455372h11.056v-10.455372-10.455372h-11.056z"/><path d="m223.9983 273.139507v10.455372h11.056v10.454427h11.055v-10.454427-10.455372h-11.055z"/><path d="m223.998 314.959577h11.056v-10.455372h-11.056z"/><path d="m306.916 364.62165h11.056v-10.455372h-11.056z"/><path d="m235.054 325.41495h11.056v-10.455373h-11.056z"/><path d="m223.998 272.778732h11.056v-10.455372h-11.056z"/><path d="m175.2839 335.869849v10.455372h11.056v-10.455372-10.455372h-11.056z"/><path d="m306.9163 333.25629h-11.056v10.455372h11.056 11.056v-10.455372-10.455372h-11.056z"/><path d="m345.6111 322.801201v10.455372h11.056v10.454427h11.055v-10.454427-10.455372h-11.055z"/><path d="m345.611 364.62165h11.056v-10.455372h-11.056z"/><path d="m441.8845 322.801201v10.455372 10.454427h11.056v-10.454427h11.055v-10.455372h-11.055z"/><path d="m406.4172 333.25629h-11.056v10.455372h11.056 11.056v-10.455372-10.455372h-11.056z"/><path d="m841.5642 112.392414v10.455373h11.056v-10.455373-10.455372h-11.056z"/><path d="m863.6755 91.482332v-10.4553722h-11.056v10.4553722 10.455372h11.056z"/><path d="m891.314 133.303159h11.056v-10.455372h-11.056z"/><path d="m902.37 112.392414h11.056v-10.455372h-11.056z"/><path d="m891.3142 81.0272435v10.4553722h11.056 11.055 11.056 11.056v-10.4553722h-11.056-11.056-11.055z"/><path d="m1137.696 118.082157h-11.055-11.056v10.455372h11.056 11.055 11.057 11.054v-10.455372h-11.054z"/><path d="m913.425 133.303159h11.056v-10.455372h-11.056z"/><path d="m963.1765 112.392414v-10.455372h-11.056v-10.4544263-10.4553722h-11.055v10.4553722 10.4544263 10.455372 10.455373 10.454426h11.055v-10.454426h11.056z"/><path d="m963.1765 81.0272435v10.4553722h11.056 11.055v-10.4553722h-11.055z"/><path d="m963.176 133.303159h11.056v-10.455372h-11.056z"/><path d="m898.787 303.198229h11.056v-10.455372h-11.056z"/><path d="m909.843 282.287485h11.056v-10.455372h-11.056z"/><path d="m920.8982 250.921652h-11.056-11.055v10.456318h11.055 11.056 11.056 11.055v-10.456318h-11.055z"/><path d="m920.898 303.198229h11.056v-10.455372h-11.056z"/><path d="m295.86 78.4134004h11.056v-10.4563179h-11.056z"/><path d="m295.86 99.3241449h11.056v-10.4553723h-11.056z"/><path d="m295.8601 47.047662v10.4563179h11.056v10.4534809h11.056v-10.4534809-10.4563179h-11.056z"/><path d="m345.6111 47.047662v10.4563179h11.056v10.4534809h11.055v-10.4534809-10.4563179h-11.055z"/><path d="m356.6667 99.3238612v-10.4553723-10.4544265h-11.056v10.4544265 10.4553723z"/><path d="m858.147 436.198773h11.056v-10.455373h-11.056z"/><path d="m869.2029 404.833791v10.455372h11.056v-10.455372-10.455372h-11.056z"/><path d="m907.898 425.744346h11.056v-10.455372h-11.056z"/><path d="m907.8982 394.378797v10.455372h11.056v10.454427h11.055v-10.454427-10.455372h-11.055z"/><path d="m957.648 446.654145h11.056v-10.455372h-11.056z"/><path d="m968.7039 404.833791v10.455372h11.057v-10.455372-10.455372h-11.057z"/><path d="m815.9802 325.138624v10.455372 10.454427 10.455372 10.455372h11.056v-10.455372-10.455372h11.055v-10.454427-10.455372h-11.055z"/><path d="m865.731 366.959356h11.056v-10.455372h-11.056z"/><path d="m865.7312 325.138624v10.455372 10.454427h11.056 11.055v-10.454427-10.455372h-11.055z"/><path d="m915.4812 325.138624v10.455372h11.056v10.454427h11.055v-10.454427-10.455372h-11.055z"/><path d="m915.481 356.503984h11.056v-10.455372h-11.056z"/><path d="m915.481 377.413783h11.056v-10.455373h-11.056z"/><path d="m306.9163 415.288879v10.455373h11.056v-10.455373-10.455372h-11.056z"/><path d="m1129.6414 52.7383501h11.056v-10.4553722-10.4544266h-11.056-11.057v10.4544266h11.057z"/><path d="m1129.6404 386.477217v-10.455372h-11.056v10.455372 10.455373 10.454426 10.455372 10.455373h11.056v-10.455373-10.455372h11.057v-10.454426h-11.057z"/><path d="m1172.7584 173.333352h-11.055v10.455372h11.055v10.454427h11.057v-20.909799z"/><path d="m775.2292 394.378797v10.455372h11.057v-10.455372-10.455372h-11.057z"/><path d="m688.6375 343.711284h-11.056v10.455372h11.056 11.056v-10.455372-10.455373h-11.056z"/><path d="m116.5896 236.927757h-11.056v9.35839h11.056 11.056v-9.35839-9.358391h-11.056z"/><path d="m105.23 334.202153h11.056v-10.455372h-11.056z"/><path d="m0 277.059421v10.455372 10.455372h11.056v-10.455372-10.455372z"/><path d="m11.0556 256.149433h-11.056v10.455372h11.056v10.454426h11.056v-10.454426-10.455372z"/><path d="m509.406 15.684004h11.056v-10.45631788h-11.056z"/><path d="m171.484 415.288974h11.056v-10.455372h-11.056z"/><path d="m210.178 415.288974h11.056v-10.455372h-11.056z"/><path d="m221.234 425.744346h11.056v-10.455372h-11.056z"/><path d="m395.3616 394.378797v10.455372 10.454427h11.056 11.055v-10.454427-10.455372h-11.055z"/><path d="m105.229 36.5938028h11.056v-10.4563179h-11.056z"/><path d="m105.229 57.5036016h11.056v-10.4563179h-11.056z"/><path d="m127.3411 15.6834366v-10.45631789h-11.056v10.45631789 10.4544266h11.056z"/><path d="m0 86.2539839h11.056v-10.4553722h-11.056z"/><path d="m43.6521 123.67128v10.455372h11.056v10.454426h11.055v-10.454426-10.455372h-11.055z"/><path d="m149.696 57.5026559h11.056v-10.4553722h-11.056z"/><path d="m447.4124 448.674672h-11.056v10.455372h11.056 11.056v-10.455372-10.455372h-11.056z"/><path d="m43.6521 394.378797v10.455372h11.056v10.454427h11.055v-10.454427-10.455372h-11.055z"/><path d="m43.652 425.744346h11.056v-10.455372h-11.056z"/><path d="m273.749 369.84839h11.056v-10.455372h-11.056z"/><path d="m406.417 376.021751h11.056v-10.455373h-11.056z"/><path d="m550.239 360.338692h11.056v-10.455372h-11.056z"/><path d="m400.889 459.129477h11.056v-10.455372h-11.056z"/><path d="m561.2942 339.428988v10.455372h11.056v-10.455372-10.455372h-11.056z"/><path d="m149.696 126.682495h11.056v-10.455372h-11.056z"/><path d="m105.229 206.402817h11.056v-10.455372h-11.056z"/><path d="m199.446 88.8687726h11.056v-10.4553722-10.4553722h-11.056v-10.4553723-10.4553722h-11.056v10.4553722 10.4553723 10.4553722 10.4553722 10.4553723h11.056z"/><path d="m232.6135 57.5027505v-10.4553722h-11.056-11.056v10.4553722h11.056z"/><path d="m238.141 78.4134004h11.056v-10.4563179h-11.056z"/><path d="m238.1414 47.047662v10.4553722h11.056v10.4544266h11.055v-10.4544266-10.4553722h-11.055z"/><path d="m43.6521 343.711284v10.455372h11.056v-10.455372-10.455373h-11.056z"/><path d="m54.7078 322.801201v10.455372h11.056v-10.455372-10.455372h-11.056z"/><path d="m295.8597.00037827v10.45537223h11.057v10.4544266h11.055v-10.4544266-10.45537223z"/><path d="m295.86 31.365171h11.056v-10.4553722h-11.056z"/><path d="m356.6664.00037827v10.45537223h-11.056v10.4544266h11.056 11.056v-10.4544266-10.45537223z"/><path d="m395.3619.00037827v10.45537223h11.056v10.4544266h11.055v-10.4544266-10.45537223z"/></g></g></svg>