<?xml version="1.0" encoding="UTF-8"?>
<svg width="1184px" height="470px" viewBox="0 0 1184 470" version="1.1" xmlns="http://www.w3.org/2000/svg" xmlns:xlink="http://www.w3.org/1999/xlink">
    <!-- Generator: Sketch 50 (54983) - http://www.bohemiancoding.com/sketch -->
    <title>membership_title</title>
    <desc>Created with Sketch.</desc>
    <defs></defs>
    <g id="HOME" stroke="none" stroke-width="1" fill="none" fill-rule="evenodd">
        <g id="SCROLLDOWN-PAGE" transform="translate(-42.000000, -6605.000000)" fill="#FFFFFF">
            <g id="ÜYELİK" transform="translate(1.000000, 6488.000000)">
                <g id="membership_title" transform="translate(41.000000, 117.000000)">
                    <g id="KARTINI-SEC-VE-KATIL" transform="translate(309.000000, 37.000000)">
                        <path d="M113.256,38.9337301 L137.336,75.3337301 L123.224,84.7417301 L101.16,51.4777301 L95,58.3097301 L95,82.5017301 L77.64,82.5017301 L77.64,2.9817301 L95,2.9817301 L95,33.5577301 L124.568,0.741730104 L137.336,12.1657301 L113.256,38.9337301 Z M163.096,2.9817301 L181.24,2.9817301 L206.888,79.2537301 L190.536,84.7417301 L184.488,66.9337301 L159.288,66.9337301 L153.8,84.7417301 L137.448,79.2537301 L163.096,2.9817301 Z M180.12,51.8137301 L173.848,33.2217301 L172.392,24.9337301 L171.944,24.9337301 L170.488,33.2217301 L164.216,51.8137301 L180.12,51.8137301 Z M253.256,19.2217301 L230.968,19.2217301 L230.968,36.6937301 L253.256,36.6937301 L257.288,32.5497301 L257.288,23.3657301 L253.256,19.2217301 Z M257.96,54.1657301 L276.44,73.0937301 L264.008,85.3017301 L232.424,52.9337301 L230.968,52.9337301 L230.968,82.5017301 L213.608,82.5017301 L213.608,2.9817301 L262.216,2.9817301 L274.648,15.3017301 L274.648,40.6137301 L262.216,52.9337301 L258.184,52.9337301 L254.264,51.0297301 L254.04,51.3657301 L257.96,54.1657301 Z M319,19.2217301 L319,82.5017301 L301.64,82.5017301 L301.64,19.2217301 L279.8,19.2217301 L279.8,2.9817301 L340.84,2.9817301 L340.84,19.2217301 L319,19.2217301 Z M384.184,82.5017301 L345.32,82.5017301 L345.32,67.3817301 L356.072,67.3817301 L356.072,18.1017301 L345.32,18.1017301 L345.32,2.9817301 L384.184,2.9817301 L384.184,18.1017301 L373.432,18.1017301 L373.432,67.3817301 L384.184,67.3817301 L384.184,82.5017301 Z M411.624,40.8377301 L411.624,82.5017301 L394.264,82.5017301 L394.264,2.9817301 L409.832,2.9817301 L435.928,44.7577301 L438.84,52.1497301 L439.288,52.1497301 L438.056,44.6457301 L438.056,2.9817301 L455.416,2.9817301 L455.416,82.5017301 L439.848,82.5017301 L413.752,40.7257301 L410.84,33.3337301 L410.392,33.3337301 L411.624,40.8377301 Z M504.36,82.5017301 L465.496,82.5017301 L465.496,67.3817301 L476.248,67.3817301 L476.248,18.1017301 L465.496,18.1017301 L465.496,2.9817301 L504.36,2.9817301 L504.36,18.1017301 L493.608,18.1017301 L493.608,67.3817301 L504.36,67.3817301 L504.36,82.5017301 Z M1.032,128.32573 L1.032,113.20573 L15.256,98.9817301 L44.712,98.9817301 L60.84,104.46973 L55.576,120.03773 L41.464,115.22173 L22.2,115.22173 L18.392,119.02973 L18.392,121.82973 L19.848,124.85373 L55.576,140.30973 L60.28,149.15773 L60.28,164.27773 L46.056,178.50173 L16.488,178.50173 L0.36,173.01373 L5.624,157.44573 L19.736,162.26173 L39.112,162.26173 L42.92,158.45373 L42.92,155.65373 L41.464,152.62973 L5.736,137.17373 L1.032,128.32573 Z M70.92,178.50173 L70.92,98.9817301 L126.136,98.9817301 L126.136,115.22173 L88.28,115.22173 L88.28,128.88573 L121.432,128.88573 L121.432,145.12573 L88.28,145.12573 L88.28,162.26173 L126.136,162.26173 L126.136,178.50173 L70.92,178.50173 Z M164.328,192.50173 L157.608,192.50173 L157.608,178.50173 L148.312,178.50173 L133.976,164.16573 L133.976,113.31773 L148.312,98.9817301 L180.68,98.9817301 L195.016,113.31773 L195.016,128.10173 L177.656,128.10173 L177.656,119.70173 L173.176,115.22173 L155.816,115.22173 L151.336,119.70173 L151.336,157.78173 L155.816,162.26173 L173.96,162.26173 L184.712,151.50973 L196.584,163.38173 L181.464,178.50173 L166.568,178.50173 L166.568,179.62173 L169.48,179.62173 L178.552,188.69373 L178.552,200.11773 L169.48,209.18973 L157.608,209.18973 L157.608,196.30973 L164.328,196.30973 L165.112,195.52573 L165.112,193.28573 L164.328,192.50173 Z M277.224,178.50173 L259.976,178.50173 L234.664,102.11773 L250.68,96.7417301 L266.92,145.68573 L268.376,153.97373 L268.824,153.97373 L270.28,145.68573 L286.52,96.7417301 L302.536,102.11773 L277.224,178.50173 Z M309.256,178.50173 L309.256,98.9817301 L364.472,98.9817301 L364.472,115.22173 L326.616,115.22173 L326.616,128.88573 L359.768,128.88573 L359.768,145.12573 L326.616,145.12573 L326.616,162.26173 L364.472,162.26173 L364.472,178.50173 L309.256,178.50173 Z M298.056,230.93373 L322.136,267.33373 L308.024,276.74173 L285.96,243.47773 L279.8,250.30973 L279.8,274.50173 L262.44,274.50173 L262.44,194.98173 L279.8,194.98173 L279.8,225.55773 L309.368,192.74173 L322.136,204.16573 L298.056,230.93373 Z M347.896,194.98173 L366.04,194.98173 L391.688,271.25373 L375.336,276.74173 L369.288,258.93373 L344.088,258.93373 L338.6,276.74173 L322.248,271.25373 L347.896,194.98173 Z M364.92,243.81373 L358.648,225.22173 L357.192,216.93373 L356.744,216.93373 L355.288,225.22173 L349.016,243.81373 L364.92,243.81373 Z M432.008,211.22173 L432.008,274.50173 L414.648,274.50173 L414.648,211.22173 L392.808,211.22173 L392.808,194.98173 L453.848,194.98173 L453.848,211.22173 L432.008,211.22173 Z M497.192,274.50173 L458.328,274.50173 L458.328,259.38173 L469.08,259.38173 L469.08,210.10173 L458.328,210.10173 L458.328,194.98173 L497.192,194.98173 L497.192,210.10173 L486.44,210.10173 L486.44,259.38173 L497.192,259.38173 L497.192,274.50173 Z M507.272,274.50173 L507.272,194.98173 L524.632,194.98173 L524.632,258.26173 L561.368,258.26173 L561.368,274.50173 L507.272,274.50173 Z" id="KARTINI-SEÇ-VE-KATIL"></path>
                    </g>
                    <g id="membership-squares">
                        <polygon id="Fill-1" points="105.534 227.397726 116.59 227.397726 116.59 216.942354 105.534 216.942354"></polygon>
                        <polygon id="Fill-2" points="1011.326 204.698712 1022.382 204.698712 1022.382 194.24334 1011.326 194.24334"></polygon>
                        <polygon id="Fill-3" points="1010.839 52.7383501 1021.895 52.7383501 1021.895 42.2829779 1010.839 42.2829779"></polygon>
                        <polygon id="Fill-4" points="1032.9519 31.828173 1032.9519 21.3728008 1021.8949 21.3728008 1021.8949 31.828173 1021.8949 42.2835453 1032.9519 42.2835453"></polygon>
                        <polygon id="Fill-5" points="775.2292 441.42608 775.2292 451.881453 775.2292 462.335879 786.2862 462.335879 786.2862 451.881453 786.2862 441.42608 786.2862 430.970708 775.2292 430.970708"></polygon>
                        <polygon id="Fill-6" points="987.232 261.377686 998.288 261.377686 998.288 250.922314 987.232 250.922314"></polygon>
                        <polygon id="Fill-7" points="1020.8396 86.7169859 1020.8396 97.1723581 1031.8956 97.1723581 1031.8956 107.626785 1042.9516 107.626785 1042.9516 97.1723581 1042.9516 86.7169859 1031.8956 86.7169859"></polygon>
                        <polygon id="Fill-8" points="1020.839 128.537907 1031.895 128.537907 1031.895 118.082535 1020.839 118.082535"></polygon>
                        <polygon id="Fill-9" points="306.916 109.778571 317.972 109.778571 317.972 99.3231992 306.916 99.3231992"></polygon>
                        <polygon id="Fill-10" points="871.147 261.377686 882.203 261.377686 882.203 250.922314 871.147 250.922314"></polygon>
                        <polygon id="Fill-11" points="487.4026 448.674672 487.4026 459.130044 498.4586 459.130044 498.4586 448.674672 498.4586 438.2193 487.4026 438.2193"></polygon>
                        <polygon id="Fill-12" points="1060.84 204.337465 1071.896 204.337465 1071.896 193.882093 1060.84 193.882093"></polygon>
                        <polygon id="Fill-13" points="1115.584 204.337465 1126.641 204.337465 1126.641 193.882093 1115.584 193.882093"></polygon>
                        <polygon id="Fill-14" points="1115.584 334.202153 1126.641 334.202153 1126.641 323.746781 1115.584 323.746781"></polygon>
                        <polygon id="Fill-15" points="1115.584 104.550885 1126.641 104.550885 1126.641 94.0955131 1115.584 94.0955131"></polygon>
                        <polygon id="Fill-16" points="1071.8962 162.515976 1060.8402 162.515976 1060.8402 172.972294 1071.8962 172.972294 1082.9522 172.972294 1082.9522 162.515976 1082.9522 152.060604 1071.8962 152.060604"></polygon>
                        <polygon id="Fill-17" points="963.1765 194.243151 963.1765 204.698523 974.2325 204.698523 974.2325 215.15295 985.2875 215.15295 985.2875 204.698523 985.2875 194.243151 974.2325 194.243151"></polygon>
                        <polygon id="Fill-18" points="642.561 352.859356 653.617 352.859356 653.617 342.403984 642.561 342.403984"></polygon>
                        <polygon id="Fill-19" points="1060.841 269.680704 1071.897 269.680704 1071.897 259.225332 1060.841 259.225332"></polygon>
                        <polygon id="Fill-20" points="1071.8962 227.860728 1060.8402 227.860728 1060.8402 238.316101 1071.8962 238.316101 1082.9522 238.316101 1082.9522 227.860728 1082.9522 217.405356 1071.8962 217.405356"></polygon>
                        <polygon id="Fill-21" points="223.998 128.075473 235.054 128.075473 235.054 117.620101 223.998 117.620101"></polygon>
                        <polygon id="Fill-22" points="179.776 194.726579 190.832 194.726579 190.832 184.271207 179.776 184.271207"></polygon>
                        <polygon id="Fill-23" points="179.7756 163.360936 179.7756 173.816308 190.8316 173.816308 190.8316 184.270734 201.8866 184.270734 201.8866 173.816308 201.8866 163.360936 190.8316 163.360936"></polygon>
                        <polygon id="Fill-24" points="223.9983 142.450853 223.9983 152.906225 235.0543 152.906225 235.0543 163.360652 246.1093 163.360652 246.1093 152.906225 246.1093 142.450853 235.0543 142.450853"></polygon>
                        <polygon id="Fill-25" points="235.054 194.726107 235.054 184.270734 235.054 173.816308 223.998 173.816308 223.998 184.270734 223.998 194.726107"></polygon>
                        <polygon id="Fill-26" points="264.7488 142.450853 264.7488 152.906225 264.7488 163.360652 264.7488 173.816024 264.7488 184.271396 275.8048 184.271396 275.8048 173.816024 275.8048 163.360652 286.8598 163.360652 286.8598 152.906225 286.8598 142.450853 275.8048 142.450853"></polygon>
                        <polygon id="Fill-27" points="637.0339 5.22740241 637.0339 15.6837203 648.0899 15.6837203 648.0899 26.1372012 659.1449 26.1372012 659.1449 15.6837203 659.1449 5.22740241 648.0899 5.22740241"></polygon>
                        <polygon id="Fill-28" points="697.8396 15.6834366 686.7836 15.6834366 686.7836 26.1378632 697.8396 26.1378632 708.8956 26.1378632 708.8956 15.6834366 708.8956 5.22711871 697.8396 5.22711871"></polygon>
                        <polygon id="Fill-29" points="747.591 15.6830584 758.647 15.6830584 758.647 5.22674044 747.591 5.22674044"></polygon>
                        <polygon id="Fill-30" points="786.2859 5.22740241 786.2859 15.6837203 797.3409 15.6837203 797.3409 26.1372012 808.3969 26.1372012 808.3969 15.6837203 808.3969 5.22740241 797.3409 5.22740241"></polygon>
                        <polygon id="Fill-31" points="836.036 36.5938028 847.092 36.5938028 847.092 26.1374849 836.036 26.1374849"></polygon>
                        <polygon id="Fill-32" points="836.036 57.5036016 847.092 57.5036016 847.092 47.0472837 836.036 47.0472837"></polygon>
                        <polygon id="Fill-33" points="858.1472 15.6834366 858.1472 5.22711871 847.0912 5.22711871 847.0912 15.6834366 847.0912 26.1378632 858.1472 26.1378632"></polygon>
                        <polygon id="Fill-34" points="896.8425 36.5935191 896.8425 26.1372012 907.8985 26.1372012 907.8985 15.6837203 907.8985 5.22740241 896.8425 5.22740241 885.7865 5.22740241 885.7865 15.6837203 885.7865 26.1372012 885.7865 36.5935191 885.7865 47.0479457 896.8425 47.0479457"></polygon>
                        <polygon id="Fill-35" points="987.895 293.204346 998.951 293.204346 998.951 282.748974 987.895 282.748974"></polygon>
                        <polygon id="Fill-36" points="185.3035 218.249748 174.2475 218.249748 174.2475 228.705121 185.3035 228.705121 196.3595 228.705121 196.3595 218.249748 196.3595 207.794376 185.3035 207.794376"></polygon>
                        <polygon id="Fill-37" points="223.9983 207.79466 223.9983 218.250032 235.0543 218.250032 235.0543 228.704459 246.1093 228.704459 246.1093 218.250032 246.1093 207.79466 235.0543 207.79466"></polygon>
                        <polygon id="Fill-38" points="264.748 260.069819 275.804 260.069819 275.804 249.614447 264.748 249.614447"></polygon>
                        <polygon id="Fill-39" points="264.7488 207.79466 264.7488 218.250032 264.7488 228.704459 275.8048 228.704459 286.8598 228.704459 286.8598 218.250032 286.8598 207.79466 275.8048 207.79466"></polygon>
                        <polygon id="Fill-40" points="931.954 237.853099 943.01 237.853099 943.01 227.397726 931.954 227.397726"></polygon>
                        <polygon id="Fill-41" points="514.934 360.338692 525.99 360.338692 525.99 349.88332 514.934 349.88332"></polygon>
                        <polygon id="Fill-42" points="356.6664 448.674861 345.6104 448.674861 345.6104 459.130233 356.6664 459.130233 356.6664 469.58466 367.7224 469.58466 367.7224 459.130233 367.7224 448.674861"></polygon>
                        <polygon id="Fill-43" points="1020.8396 348.094294 1020.8396 358.549666 1031.8956 358.549666 1031.8956 369.004093 1042.9516 369.004093 1042.9516 358.549666 1042.9516 348.094294 1031.8956 348.094294"></polygon>
                        <polygon id="Fill-44" points="1020.84 389.914648 1031.896 389.914648 1031.896 379.459276 1020.84 379.459276"></polygon>
                        <polygon id="Fill-45" points="174.247 314.959577 185.303 314.959577 185.303 304.504205 174.247 304.504205"></polygon>
                        <polygon id="Fill-46" points="185.3035 283.594501 185.3035 294.049873 196.3595 294.049873 196.3595 283.594501 196.3595 273.139129 185.3035 273.139129"></polygon>
                        <polygon id="Fill-47" points="223.9983 273.139507 223.9983 283.594879 235.0543 283.594879 235.0543 294.049306 246.1093 294.049306 246.1093 283.594879 246.1093 273.139507 235.0543 273.139507"></polygon>
                        <polygon id="Fill-48" points="223.998 314.959577 235.054 314.959577 235.054 304.504205 223.998 304.504205"></polygon>
                        <polygon id="Fill-49" points="306.916 364.62165 317.972 364.62165 317.972 354.166278 306.916 354.166278"></polygon>
                        <polygon id="Fill-50" points="235.054 325.41495 246.11 325.41495 246.11 314.959577 235.054 314.959577"></polygon>
                        <polygon id="Fill-51" points="223.998 272.778732 235.054 272.778732 235.054 262.32336 223.998 262.32336"></polygon>
                        <polygon id="Fill-52" points="175.2839 335.869849 175.2839 346.325221 186.3399 346.325221 186.3399 335.869849 186.3399 325.414477 175.2839 325.414477"></polygon>
                        <polygon id="Fill-53" points="306.9163 333.25629 295.8603 333.25629 295.8603 343.711662 306.9163 343.711662 317.9723 343.711662 317.9723 333.25629 317.9723 322.800918 306.9163 322.800918"></polygon>
                        <polygon id="Fill-54" points="345.6111 322.801201 345.6111 333.256573 356.6671 333.256573 356.6671 343.711 367.7221 343.711 367.7221 333.256573 367.7221 322.801201 356.6671 322.801201"></polygon>
                        <polygon id="Fill-55" points="345.611 364.62165 356.667 364.62165 356.667 354.166278 345.611 354.166278"></polygon>
                        <polygon id="Fill-56" points="441.8845 322.801201 441.8845 333.256573 441.8845 343.711 452.9405 343.711 452.9405 333.256573 463.9955 333.256573 463.9955 322.801201 452.9405 322.801201"></polygon>
                        <polygon id="Fill-57" points="406.4172 333.25629 395.3612 333.25629 395.3612 343.711662 406.4172 343.711662 417.4732 343.711662 417.4732 333.25629 417.4732 322.800918 406.4172 322.800918"></polygon>
                        <polygon id="Fill-58" points="841.5642 112.392414 841.5642 122.847787 852.6202 122.847787 852.6202 112.392414 852.6202 101.937042 841.5642 101.937042"></polygon>
                        <polygon id="Fill-59" points="863.6755 91.482332 863.6755 81.0269598 852.6195 81.0269598 852.6195 91.482332 852.6195 101.937704 863.6755 101.937704"></polygon>
                        <polygon id="Fill-60" points="891.314 133.303159 902.37 133.303159 902.37 122.847787 891.314 122.847787"></polygon>
                        <polygon id="Fill-61" points="902.37 112.392414 913.426 112.392414 913.426 101.937042 902.37 101.937042"></polygon>
                        <polygon id="Fill-62" points="891.3142 81.0272435 891.3142 91.4826157 902.3702 91.4826157 913.4252 91.4826157 924.4812 91.4826157 935.5372 91.4826157 935.5372 81.0272435 924.4812 81.0272435 913.4252 81.0272435 902.3702 81.0272435"></polygon>
                        <polygon id="Fill-63" points="1137.696 118.082157 1126.641 118.082157 1115.585 118.082157 1115.585 128.537529 1126.641 128.537529 1137.696 128.537529 1148.753 128.537529 1159.807 128.537529 1159.807 118.082157 1148.753 118.082157"></polygon>
                        <polygon id="Fill-64" points="913.425 133.303159 924.481 133.303159 924.481 122.847787 913.425 122.847787"></polygon>
                        <polygon id="Fill-65" points="963.1765 112.392414 963.1765 101.937042 952.1205 101.937042 952.1205 91.4826157 952.1205 81.0272435 941.0655 81.0272435 941.0655 91.4826157 941.0655 101.937042 941.0655 112.392414 941.0655 122.847787 941.0655 133.302213 952.1205 133.302213 952.1205 122.847787 963.1765 122.847787"></polygon>
                        <polygon id="Fill-66" points="963.1765 81.0272435 963.1765 91.4826157 974.2325 91.4826157 985.2875 91.4826157 985.2875 81.0272435 974.2325 81.0272435"></polygon>
                        <polygon id="Fill-67" points="963.176 133.303159 974.232 133.303159 974.232 122.847787 963.176 122.847787"></polygon>
                        <polygon id="Fill-68" points="898.787 303.198229 909.843 303.198229 909.843 292.742857 898.787 292.742857"></polygon>
                        <polygon id="Fill-69" points="909.843 282.287485 920.899 282.287485 920.899 271.832113 909.843 271.832113"></polygon>
                        <polygon id="Fill-70" points="920.8982 250.921652 909.8422 250.921652 898.7872 250.921652 898.7872 261.37797 909.8422 261.37797 920.8982 261.37797 931.9542 261.37797 943.0092 261.37797 943.0092 250.921652 931.9542 250.921652"></polygon>
                        <polygon id="Fill-71" points="920.898 303.198229 931.954 303.198229 931.954 292.742857 920.898 292.742857"></polygon>
                        <polygon id="Fill-72" points="295.86 78.4134004 306.916 78.4134004 306.916 67.9570825 295.86 67.9570825"></polygon>
                        <polygon id="Fill-73" points="295.86 99.3241449 306.916 99.3241449 306.916 88.8687726 295.86 88.8687726"></polygon>
                        <polygon id="Fill-74" points="295.8601 47.047662 295.8601 57.5039799 306.9161 57.5039799 306.9161 67.9574608 317.9721 67.9574608 317.9721 57.5039799 317.9721 47.047662 306.9161 47.047662"></polygon>
                        <polygon id="Fill-75" points="345.6111 47.047662 345.6111 57.5039799 356.6671 57.5039799 356.6671 67.9574608 367.7221 67.9574608 367.7221 57.5039799 367.7221 47.047662 356.6671 47.047662"></polygon>
                        <polygon id="Fill-76" points="356.6667 99.3238612 356.6667 88.8684889 356.6667 78.4140624 345.6107 78.4140624 345.6107 88.8684889 345.6107 99.3238612"></polygon>
                        <polygon id="Fill-77" points="858.147 436.198773 869.203 436.198773 869.203 425.7434 858.147 425.7434"></polygon>
                        <polygon id="Fill-78" points="869.2029 404.833791 869.2029 415.289163 880.2589 415.289163 880.2589 404.833791 880.2589 394.378419 869.2029 394.378419"></polygon>
                        <polygon id="Fill-79" points="907.898 425.744346 918.954 425.744346 918.954 415.288974 907.898 415.288974"></polygon>
                        <polygon id="Fill-80" points="907.8982 394.378797 907.8982 404.834169 918.9542 404.834169 918.9542 415.288596 930.0092 415.288596 930.0092 404.834169 930.0092 394.378797 918.9542 394.378797"></polygon>
                        <polygon id="Fill-81" points="957.648 446.654145 968.704 446.654145 968.704 436.198773 957.648 436.198773"></polygon>
                        <polygon id="Fill-82" points="968.7039 404.833791 968.7039 415.289163 979.7609 415.289163 979.7609 404.833791 979.7609 394.378419 968.7039 394.378419"></polygon>
                        <polygon id="Fill-83" points="815.9802 325.138624 815.9802 335.593996 815.9802 346.048423 815.9802 356.503795 815.9802 366.959167 827.0362 366.959167 827.0362 356.503795 827.0362 346.048423 838.0912 346.048423 838.0912 335.593996 838.0912 325.138624 827.0362 325.138624"></polygon>
                        <polygon id="Fill-84" points="865.731 366.959356 876.787 366.959356 876.787 356.503984 865.731 356.503984"></polygon>
                        <polygon id="Fill-85" points="865.7312 325.138624 865.7312 335.593996 865.7312 346.048423 876.7872 346.048423 887.8422 346.048423 887.8422 335.593996 887.8422 325.138624 876.7872 325.138624"></polygon>
                        <polygon id="Fill-86" points="915.4812 325.138624 915.4812 335.593996 926.5372 335.593996 926.5372 346.048423 937.5922 346.048423 937.5922 335.593996 937.5922 325.138624 926.5372 325.138624"></polygon>
                        <polygon id="Fill-87" points="915.481 356.503984 926.537 356.503984 926.537 346.048612 915.481 346.048612"></polygon>
                        <polygon id="Fill-88" points="915.481 377.413783 926.537 377.413783 926.537 366.95841 915.481 366.95841"></polygon>
                        <polygon id="Fill-89" points="306.9163 415.288879 306.9163 425.744252 317.9723 425.744252 317.9723 415.288879 317.9723 404.833507 306.9163 404.833507"></polygon>
                        <polygon id="Fill-90" points="1129.6414 52.7383501 1140.6974 52.7383501 1140.6974 42.2829779 1140.6974 31.8285513 1129.6414 31.8285513 1118.5844 31.8285513 1118.5844 42.2829779 1129.6414 42.2829779"></polygon>
                        <polygon id="Fill-91" points="1129.6404 386.477217 1129.6404 376.021845 1118.5844 376.021845 1118.5844 386.477217 1118.5844 396.93259 1118.5844 407.387016 1118.5844 417.842388 1118.5844 428.297761 1129.6404 428.297761 1129.6404 417.842388 1129.6404 407.387016 1140.6974 407.387016 1140.6974 396.93259 1129.6404 396.93259"></polygon>
                        <polygon id="Fill-92" points="1172.7584 173.333352 1161.7034 173.333352 1161.7034 183.788724 1172.7584 183.788724 1172.7584 194.243151 1183.8154 194.243151 1183.8154 173.333352"></polygon>
                        <polygon id="Fill-93" points="775.2292 394.378797 775.2292 404.834169 786.2862 404.834169 786.2862 394.378797 786.2862 383.923425 775.2292 383.923425"></polygon>
                        <polygon id="Fill-94" points="688.6375 343.711284 677.5815 343.711284 677.5815 354.166656 688.6375 354.166656 699.6935 354.166656 699.6935 343.711284 699.6935 333.255911 688.6375 333.255911"></polygon>
                        <polygon id="Fill-95" points="116.5896 236.927757 105.5336 236.927757 105.5336 246.286147 116.5896 246.286147 127.6456 246.286147 127.6456 236.927757 127.6456 227.569366 116.5896 227.569366"></polygon>
                        <polygon id="Fill-96" points="105.23 334.202153 116.286 334.202153 116.286 323.746781 105.23 323.746781"></polygon>
                        <polygon id="Fill-97" points="0 277.059421 0 287.514793 0 297.970165 11.056 297.970165 11.056 287.514793 11.056 277.059421"></polygon>
                        <polygon id="Fill-98" points="11.0556 256.149433 -0.0004 256.149433 -0.0004 266.604805 11.0556 266.604805 11.0556 277.059231 22.1116 277.059231 22.1116 266.604805 22.1116 256.149433"></polygon>
                        <polygon id="Fill-99" points="509.406 15.684004 520.462 15.684004 520.462 5.22768612 509.406 5.22768612"></polygon>
                        <polygon id="Fill-100" points="171.484 415.288974 182.54 415.288974 182.54 404.833602 171.484 404.833602"></polygon>
                        <polygon id="Fill-101" points="210.178 415.288974 221.234 415.288974 221.234 404.833602 210.178 404.833602"></polygon>
                        <polygon id="Fill-102" points="221.234 425.744346 232.29 425.744346 232.29 415.288974 221.234 415.288974"></polygon>
                        <polygon id="Fill-103" points="395.3616 394.378797 395.3616 404.834169 395.3616 415.288596 406.4176 415.288596 417.4726 415.288596 417.4726 404.834169 417.4726 394.378797 406.4176 394.378797"></polygon>
                        <polygon id="Fill-104" points="105.229 36.5938028 116.285 36.5938028 116.285 26.1374849 105.229 26.1374849"></polygon>
                        <polygon id="Fill-105" points="105.229 57.5036016 116.285 57.5036016 116.285 47.0472837 105.229 47.0472837"></polygon>
                        <polygon id="Fill-106" points="127.3411 15.6834366 127.3411 5.22711871 116.2851 5.22711871 116.2851 15.6834366 116.2851 26.1378632 127.3411 26.1378632"></polygon>
                        <polygon id="Fill-107" points="0 86.2539839 11.056 86.2539839 11.056 75.7986117 0 75.7986117"></polygon>
                        <polygon id="Fill-108" points="43.6521 123.67128 43.6521 134.126652 54.7081 134.126652 54.7081 144.581078 65.7631 144.581078 65.7631 134.126652 65.7631 123.67128 54.7081 123.67128"></polygon>
                        <polygon id="Fill-109" points="149.696 57.5026559 160.752 57.5026559 160.752 47.0472837 149.696 47.0472837"></polygon>
                        <polygon id="Fill-110" points="447.4124 448.674672 436.3564 448.674672 436.3564 459.130044 447.4124 459.130044 458.4684 459.130044 458.4684 448.674672 458.4684 438.2193 447.4124 438.2193"></polygon>
                        <polygon id="Fill-111" points="43.6521 394.378797 43.6521 404.834169 54.7081 404.834169 54.7081 415.288596 65.7631 415.288596 65.7631 404.834169 65.7631 394.378797 54.7081 394.378797"></polygon>
                        <polygon id="Fill-112" points="43.652 425.744346 54.708 425.744346 54.708 415.288974 43.652 415.288974"></polygon>
                        <polygon id="Fill-113" points="273.749 369.84839 284.805 369.84839 284.805 359.393018 273.749 359.393018"></polygon>
                        <polygon id="Fill-114" points="406.417 376.021751 417.473 376.021751 417.473 365.566378 406.417 365.566378"></polygon>
                        <polygon id="Fill-115" points="550.239 360.338692 561.295 360.338692 561.295 349.88332 550.239 349.88332"></polygon>
                        <polygon id="Fill-116" points="400.889 459.129477 411.945 459.129477 411.945 448.674105 400.889 448.674105"></polygon>
                        <polygon id="Fill-117" points="561.2942 339.428988 561.2942 349.88436 572.3502 349.88436 572.3502 339.428988 572.3502 328.973616 561.2942 328.973616"></polygon>
                        <polygon id="Fill-118" points="149.696 126.682495 160.752 126.682495 160.752 116.227123 149.696 116.227123"></polygon>
                        <polygon id="Fill-119" points="105.229 206.402817 116.285 206.402817 116.285 195.947445 105.229 195.947445"></polygon>
                        <polygon id="Fill-120" points="199.446 88.8687726 210.502 88.8687726 210.502 78.4134004 210.502 67.9580282 199.446 67.9580282 199.446 57.5026559 199.446 47.0472837 188.39 47.0472837 188.39 57.5026559 188.39 67.9580282 188.39 78.4134004 188.39 88.8687726 188.39 99.3241449 199.446 99.3241449"></polygon>
                        <polygon id="Fill-121" points="232.6135 57.5027505 232.6135 47.0473783 221.5575 47.0473783 210.5015 47.0473783 210.5015 57.5027505 221.5575 57.5027505"></polygon>
                        <polygon id="Fill-122" points="238.141 78.4134004 249.197 78.4134004 249.197 67.9570825 238.141 67.9570825"></polygon>
                        <polygon id="Fill-123" points="238.1414 47.047662 238.1414 57.5030342 249.1974 57.5030342 249.1974 67.9574608 260.2524 67.9574608 260.2524 57.5030342 260.2524 47.047662 249.1974 47.047662"></polygon>
                        <polygon id="Fill-124" points="43.6521 343.711284 43.6521 354.166656 54.7081 354.166656 54.7081 343.711284 54.7081 333.255911 43.6521 333.255911"></polygon>
                        <polygon id="Fill-125" points="54.7078 322.801201 54.7078 333.256573 65.7638 333.256573 65.7638 322.801201 65.7638 312.345829 54.7078 312.345829"></polygon>
                        <polygon id="Fill-126" points="295.8597 0.000378269618 295.8597 10.4557505 306.9167 10.4557505 306.9167 20.9101771 317.9717 20.9101771 317.9717 10.4557505 317.9717 0.000378269618"></polygon>
                        <polygon id="Fill-127" points="295.86 31.365171 306.916 31.365171 306.916 20.9097988 295.86 20.9097988"></polygon>
                        <polygon id="Fill-128" points="356.6664 0.000378269618 356.6664 10.4557505 345.6104 10.4557505 345.6104 20.9101771 356.6664 20.9101771 367.7224 20.9101771 367.7224 10.4557505 367.7224 0.000378269618"></polygon>
                        <polygon id="Fill-129" points="395.3619 0.000378269618 395.3619 10.4557505 406.4179 10.4557505 406.4179 20.9101771 417.4729 20.9101771 417.4729 10.4557505 417.4729 0.000378269618"></polygon>
                    </g>
                </g>
            </g>
        </g>
    </g>
</svg>