<svg height="178" viewBox="0 0 1078 178" width="1078" xmlns="http://www.w3.org/2000/svg"><g fill="#1e1e1e" fill-rule="evenodd"><path d="m908.9528 86.57h-11.056v11.057 11.054 11.057h11.056v-11.057-11.054h11.056v-11.057-11.055h-11.056z"/><path d="m947.6472 108.6814v11.057h11.057v-11.057-11.055h-11.057z"/><path d="m958.7038 86.57v11.057h11.055v-11.057-11.055h-11.055z"/><path d="m997.3981 75.5154v11.055h11.056v11.056h11.055v-11.056-11.055h-11.055z"/><path d="m1055.149 130.793h11.056v-11.055h-11.056z"/><path d="m1066.2048 86.57h-11.056v11.057h11.056 11.056v-11.057-11.055h-11.056z"/><path d="m947.6472 144.613v11.056h11.057v11.055h11.054v-11.055-11.056h-11.054z"/><path d="m947.647 177.78h11.057v-11.056h-11.057z"/><path d="m1066.2048 155.6687v11.056h11.056v-11.056-11.056h-11.056z"/><path d="m281.817 101.773h11.056v-11.056h-11.056z"/><path d="m281.8176 57.5495v11.056h11.056v11.055h11.055v-11.055-11.056h-11.055z"/><path d="m342.624 68.605h11.056v-11.056h-11.056z"/><path d="m381.319 57.5495v11.056 11.055h11.056 11.055v-11.055-11.056h-11.055z"/><path d="m381.319 112.828h11.056v-11.056h-11.056z"/><path d="m431.0695 57.5495v11.056h11.056v11.055h11.055v-11.055-11.056h-11.055z"/><path d="m431.07 90.717h11.056v-11.056h-11.056z"/><path d="m431.069 112.828h11.056v-11.056h-11.056z"/><path d="m480.82 90.717h11.056v-11.056h-11.056z"/><path d="m491.8757 68.6052v11.056h11.056v-11.056-11.056h-11.056z"/><path d="m281.8176 126.6472v11.056 11.055h11.056 11.055v-11.055-11.056h-11.055z"/><path d="m381.319 159.814h11.056v-11.056h-11.056z"/><path d="m480.82 130.87h11.056v-11.056h-11.056z"/><path d="m563.9294 11.945v11.055h11.056v-11.055-11.057h-11.056z"/><path d="m602.6247.8884v11.057h11.056v11.054h11.055v-11.054-11.057h-11.055z"/><path d="m602.624 45.112h11.056v-11.056h-11.056z"/><path d="m652.3757 45.112v11.056h11.056v-11.056-11.056h-11.056z"/><path d="m652.3757.8884v11.057h11.056v11.054h11.055v-11.054-11.057h-11.055z"/><path d="m702.1257.8884v11.057h11.056v11.054h11.055v-11.054-11.057h-11.055z"/><path d="m702.126 34.056h11.056v-11.057h-11.056z"/><path d="m762.932 11.945h11.056v-11.057h-11.056z"/><path d="m830.415 86.571h11.056v-11.056h-11.056z"/><path d="m563.9294 81.0427h-11.056v11.056h11.056 11.056v-11.056-11.056h-11.056z"/><path d="m602.6247 69.987v11.056 11.055h11.056 11.055v-11.055-11.056h-11.055z"/><path d="m602.625 125.265h11.056v-11.056h-11.056z"/><path d="m652.376 103.154h11.056v-11.056h-11.056z"/><path d="m652.376 125.265h11.056v-11.056h-11.056z"/><path d="m751.877 103.154h11.056v-11.056h-11.056z"/><path d="m751.877 125.265h11.056v-11.056h-11.056z"/><path d="m751.8766 69.987v11.056h11.056v11.055h11.055v-11.055-11.056h-11.055z"/><path d="m790.571 11.945v11.055h11.056v-11.055-11.057h-11.056z"/><path d="m.842 29.9099v11.056 11.055h11.056 11.056v-11.055-11.056h-11.056z"/><path d="m.842 85.189h11.056v-11.056h-11.056z"/><path d="m50.593 29.9099v11.056h11.056v11.055h11.055v-11.055-11.056h-11.055z"/><path d="m50.593 63.077h11.056v-11.056h-11.056z"/><path d="m50.593 85.189h11.056v-11.056h-11.056z"/><path d="m111.3991 40.9655h-11.056v11.056 11.055 11.056h11.056v-11.056-11.055h11.056v-11.056-11.056h-11.056z"/><path d="m150.0939 29.9099v11.056h11.056v11.055h11.055v-11.055-11.056h-11.055z"/><path d="m150.094 63.077h11.056v-11.056h-11.056z"/><path d="m150.094 85.189h11.056v-11.056h-11.056z"/><path d="m210.9001 40.9655h-11.056v11.056h11.056 11.056v-11.056-11.056h-11.056z"/><path d="m431.0695 143.2312v11.056 11.055h11.056v-11.055-11.056-11.056h-11.056z"/><path d="m11.8981 110.0642h-11.056v11.055h11.056 11.056v-11.055-11.057h-11.056z"/><path d="m61.649 110.064h11.056v-11.057h-11.056z"/><path d="m150.0939 132.1755v11.056h11.056v-11.056-11.057h-11.056z"/><path d="m161.1496 110.0642v11.055h11.056v-11.055-11.057h-11.056z"/></g></svg>