<svg height="304" viewBox="0 0 1087 304" width="1087" xmlns="http://www.w3.org/2000/svg"><g fill="none" fill-rule="evenodd"><g fill="#1e1e1e"><path d="m362.4782 158.6345h11.056v-11.056-11.055h-11.056-11.056v11.055h11.056z"/><path d="m22.1115 56.3689v-11.056h-11.056v11.056 11.056h11.056z"/><path d="m400.3747 17.1159v-11.056h-11.056v11.056 11.056h11.056z"/><path d="m49.751 100.592h11.056v-11.056h-11.056z"/><path d="m99.501 78.481h11.056v-11.056h-11.056z"/><path d="m121.6125 56.3689v-11.056h-11.056-11.055v11.056h11.055v11.056h11.056z"/><path d="m160.307 33.7h11.056v-11.056h-11.056z"/><path d="m171.3627.5333h-11.056v11.056h11.056v11.055h11.056v-11.055-11.056z"/><path d="m160.307 56.369h11.056v-11.056h-11.056z"/><path d="m210.0583 67.4245h11.056v-11.056-11.055h-11.056-11.056v11.055 11.056 11.056h11.056z"/><path d="m248.753 89.536h11.056v-11.056h-11.056z"/><path d="m259.8088 67.4245h11.056v-11.056-11.055h-11.056-11.056v11.055h11.056z"/><path d="m828.507 100.592h11.056v-11.056h-11.056z"/><path d="m850.6188 67.4245v-11.056-11.055h-11.056v11.055h-11.055v11.056h11.055z"/><path d="m878.257 78.481h11.056v-11.056h-11.056z"/><path d="m900.3688 56.3689v-11.056h-11.056-11.055v11.056h11.055v11.056h11.056z"/><path d="m446.946 280.247h11.056v-11.056h-11.056z"/><path d="m446.9465 258.1355h11.056v11.056h11.055v-11.056-11.056h-11.055-11.056z"/><path d="m928.008 100.592h11.056v-11.056h-11.056z"/><path d="m805.7497 28.1716v-11.056-11.055h-11.056v11.055h-11.055v11.056h11.055z"/><path d="m999.8698 67.4245v-11.056-11.055h-11.056-11.055v11.055 11.056h11.055z"/><path d="m977.758 100.592h11.056v-11.056h-11.056z"/><path d="m1027.51 89.536h11.056v-11.056h-11.056z"/><path d="m1027.5095 45.3132v11.056h11.056v11.055h11.055v-11.055-11.056h-11.055z"/><path d="m394.847 153.107h11.056v-11.056h-11.056z"/><path d="m394.847 292.368h11.056v-11.056h-11.056z"/><path d="m11.0556 114.4121h-11.056v11.056h11.056v11.055h11.056v-11.055-11.056z"/><path d="m71.862 147.5788v-11.056h-11.056v-11.055h11.056v-11.056h-11.056-11.055v11.056 11.055 11.056h11.055v11.056 11.055h11.056 11.056v-11.055h-11.056z"/><path d="m82.918 125.467h11.056v-11.056h-11.056z"/><path d="m110.557 125.467h11.056v-11.056h-11.056z"/><path d="m1074.986 28.171h11.056v-11.056h-11.056z"/><path d="m11.056 11.061h11.056v-11.056h-11.056z"/><path d="m458.002 292.368h11.056v-11.056h-11.056z"/><path d="m485.641 292.368h11.056v-11.056h-11.056z"/><path d="m160.3073 147.5788v-11.056h11.056v-11.055-11.056h-11.056-11.056v11.056 11.055 11.056 11.056h11.056z"/><path d="m210.0583 147.5788v-11.056h-11.056v11.056 11.056h11.056z"/><path d="m221.114 125.4675v-11.056h-11.056v11.056 11.056h11.056z"/><path d="m248.753 147.579h11.056v-11.056h-11.056z"/><path d="m270.8644 125.4675v-11.056h-11.056v11.056 11.056h11.056z"/><path d="m828.507 147.579h11.056v-11.056h-11.056z"/><path d="m828.507 169.69h11.056v-11.056h-11.056z"/><path d="m850.6188 125.4675v-11.056h-11.056-11.055v11.056h11.055v11.056h11.056z"/><path d="m900.3688 136.5232h-11.056v-11.056-11.055h-11.055v11.055 11.056 11.056 11.055 11.056h11.055v-11.056-11.055h11.056z"/><path d="m532.1218 153.1062v-11.056h-11.056v11.056 11.056 11.055 11.056 11.056h11.056v-11.056-11.056h11.056v-11.055h-11.056z"/><path d="m930.7722 22.6443v11.056h11.056 11.055v-11.056h-11.055z"/><path d="m900.369 169.69h11.056v-11.056h-11.056z"/><path d="m928.008 147.579h11.056v-11.056h-11.056z"/><path d="m928.008 169.69h11.056v-11.056h-11.056z"/><path d="m928.0085 114.4118v11.056h11.056v11.055h11.055v-11.055-11.056h-11.055z"/><path d="m999.8698 125.4675v-11.056h-11.056-11.055v11.056h11.055v11.056h11.056z"/><path d="m977.7585 147.5788v11.056h11.056v-11.056-11.056h-11.056z"/><path d="m1027.51 147.579h11.056v-11.056h-11.056z"/><path d="m1069.458 147.579h11.056v-11.056h-11.056z"/><path d="m1069.458 247.08h11.056v-11.056h-11.056z"/><path d="m705.204 153.107h11.056v-11.056h-11.056z"/><path d="m286.685 22.645h11.056v-11.056h-11.056z"/><path d="m669.3962 164.1618h11.056v-11.056-11.055h-11.056-11.056v11.055h11.056z"/><path d="m67.113.5333h-11.056-11.055v11.056h11.055v11.055h11.056v-11.055h11.056v-11.056z"/><path d="m560.8737 153.1062h11.056v11.056h11.055v-11.056-11.056h-11.055-11.056z"/><path d="m427.598 175.218h11.056v-11.056h-11.056z"/><path d="m449.7101 153.1062v-11.056h-11.056-11.055v11.056h11.055v11.056h11.056z"/><path d="m488.4055 175.2175v-11.056h11.056v-11.055-11.056h-11.056v11.056h-11.056v11.055 11.056 11.056h11.056z"/><path d="m1033.038 28.172h11.056v-11.056h-11.056z"/><path d="m471.822 216.913h11.056v-11.056h-11.056z"/><path d="m444.1823 205.8571v-11.056h-11.056-11.055v11.056 11.056h11.055 11.056z"/><path d="m805.7497 194.8015v-11.056h-11.056-11.055v11.056 11.056h11.055 11.056z"/><path d="m303.2687 303.4236v-11.056-11.055h-11.056-11.055v11.055 11.056h11.055z"/><path d="m127.6911 174.2175v11.056h11.056v11.055h11.055v-11.055-11.056h-11.055z"/><path d="m177.442 207.384h11.056v-11.056h-11.056z"/><path d="m188.4973 185.2732v11.056h11.056v-11.056-11.056h-11.056z"/><path d="m281.1574 194.8015h11.056v-11.056-11.055h-11.056-11.056v11.055h11.056z"/><path d="m227.192 218.44h11.056v-11.056h-11.056z"/><path d="m229.299 183.746h11.056v-11.057h-11.056z"/><path d="m318.324 292.368h11.056v-11.056h-11.056z"/><path d="m292.213 175.217h11.056v-11.056h-11.056z"/><path d="m323.8522 249.8767h-11.056-11.055-11.056-11.056v11.056h11.056 11.056 11.055 11.056z"/><path d="m318.324 201.857h11.056v-11.056h-11.056z"/><path d="m351.491 216.913h11.056v-11.056h-11.056z"/><path d="m138.747 222.968h11.056v-11.056h-11.056z"/><path d="m351.4914 172.6902v11.056 11.055h11.056 11.055v-11.055-11.056h-11.055z"/><path d="m842.327 236.024h11.056v-11.056h-11.056z"/><path d="m842.3268 191.8015v11.056h11.056v11.055h11.055v-11.055-11.056h-11.055z"/><path d="m892.078 247.08h11.056v-11.056h-11.056z"/><path d="m11.056 222.44h11.056v-11.056h-11.056z"/><path d="m610.7702 17.1159v-11.056h-11.056-11.055v11.056 11.056h11.055 11.056z"/><path d="m746.569 153.107h11.056v-11.056h-11.056z"/><path d="m752.096 205.858h11.056v-11.057h-11.056z"/><path d="m515.1843 281.8405v11.056h11.056v-11.056-11.056h-11.056z"/><path d="m1013.6901 202.8571v-11.056h-11.056v11.056h-11.055v11.056h11.055 11.056z"/><path d="m658.34 211.385h11.056v-11.056h-11.056z"/><path d="m680.4518 189.2732v-11.056h-11.056-11.055v11.056h11.055v11.056h11.056z"/><path d="m568.2116 28.1716v-11.056-11.055h-11.056-11.055v11.055h11.055v11.056z"/></g><path d="m301.088 101.576v25.424h-17.36v-79.52h46.704l14.336 14.224v25.648l-14.336 14.224zm21.84-37.856h-21.84v21.616h21.84l4.48-4.48v-12.656zm71.568 0h-22.288v17.472h22.288l4.032-4.144v-9.184zm4.704 34.944 18.48 18.928-12.432 12.208-31.584-32.368h-1.456v29.568h-17.36v-79.52h48.608l12.432 12.32v25.312l-12.432 12.32h-4.032l-3.92-1.904-.224.336zm41.888-51.184h33.264l15.568 14.112v51.296l-15.568 14.112h-33.264l-15.568-14.112v-51.296zm31.472 20.944-5.152-4.704h-19.376l-5.152 4.704v37.632l5.152 4.704h19.376l5.152-4.704zm38.864 58.576-15.904-15.792 11.76-11.872 11.536 11.424h12.656l4.48-4.48v-42.56h-15.456v-16.24h32.816v65.184l-14.336 14.336zm54.208 0v-79.52h55.216v16.24h-37.856v13.664h33.152v16.24h-33.152v17.136h37.856v16.24zm64.176 0v-79.52h17.36v63.28h36.736v16.24zm61.936 0v-79.52h55.216v16.24h-37.856v13.664h33.152v16.24h-33.152v17.136h37.856v16.24zm103.824-63.28h-22.288v17.472h22.288l4.032-4.144v-9.184zm4.704 34.944 18.48 18.928-12.432 12.208-31.584-32.368h-1.456v29.568h-17.36v-79.52h48.608l12.432 12.32v25.312l-12.432 12.32h-4.032l-3.92-1.904-.224.336z" fill="#000"/></g></svg>