<?xml version="1.0" encoding="UTF-8"?>
<svg width="1087px" height="304px" viewBox="0 0 1087 304" version="1.1" xmlns="http://www.w3.org/2000/svg" xmlns:xlink="http://www.w3.org/1999/xlink">
    <!-- Generator: Sketch 50 (54983) - http://www.bohemiancoding.com/sketch -->
    <title>projects_title</title>
    <desc>Created with Sketch.</desc>
    <defs></defs>
    <g id="Page-1" stroke="none" stroke-width="1" fill="none" fill-rule="evenodd">
        <g id="projects_title">
            <polygon id="Fill-1" fill="#1E1E1E" points="362.4782 158.6345 373.5342 158.6345 373.5342 147.5785 373.5342 136.5235 362.4782 136.5235 351.4222 136.5235 351.4222 147.5785 362.4782 147.5785"></polygon>
            <polygon id="Fill-2" fill="#1E1E1E" points="22.1115 56.3689 22.1115 45.3129 11.0555 45.3129 11.0555 56.3689 11.0555 67.4249 22.1115 67.4249"></polygon>
            <polygon id="Fill-3" fill="#1E1E1E" points="400.3747 17.1159 400.3747 6.0599 389.3187 6.0599 389.3187 17.1159 389.3187 28.1719 400.3747 28.1719"></polygon>
            <polygon id="Fill-4" fill="#1E1E1E" points="49.751 100.592 60.807 100.592 60.807 89.536 49.751 89.536"></polygon>
            <polygon id="Fill-5" fill="#1E1E1E" points="99.501 78.481 110.557 78.481 110.557 67.425 99.501 67.425"></polygon>
            <polygon id="Fill-6" fill="#1E1E1E" points="121.6125 56.3689 121.6125 45.3129 110.5565 45.3129 99.5015 45.3129 99.5015 56.3689 110.5565 56.3689 110.5565 67.4249 121.6125 67.4249"></polygon>
            <polygon id="Fill-7" fill="#1E1E1E" points="160.307 33.7 171.363 33.7 171.363 22.644 160.307 22.644"></polygon>
            <polygon id="Fill-8" fill="#1E1E1E" points="171.3627 0.5333 160.3067 0.5333 160.3067 11.5893 171.3627 11.5893 171.3627 22.6443 182.4187 22.6443 182.4187 11.5893 182.4187 0.5333"></polygon>
            <polygon id="Fill-9" fill="#1E1E1E" points="160.307 56.369 171.363 56.369 171.363 45.313 160.307 45.313"></polygon>
            <polygon id="Fill-10" fill="#1E1E1E" points="210.0583 67.4245 221.1143 67.4245 221.1143 56.3685 221.1143 45.3135 210.0583 45.3135 199.0023 45.3135 199.0023 56.3685 199.0023 67.4245 199.0023 78.4805 210.0583 78.4805"></polygon>
            <polygon id="Fill-11" fill="#1E1E1E" points="248.753 89.536 259.809 89.536 259.809 78.48 248.753 78.48"></polygon>
            <polygon id="Fill-12" fill="#1E1E1E" points="259.8088 67.4245 270.8648 67.4245 270.8648 56.3685 270.8648 45.3135 259.8088 45.3135 248.7528 45.3135 248.7528 56.3685 259.8088 56.3685"></polygon>
            <polygon id="Fill-13" fill="#1E1E1E" points="828.507 100.592 839.563 100.592 839.563 89.536 828.507 89.536"></polygon>
            <polygon id="Fill-14" fill="#1E1E1E" points="850.6188 67.4245 850.6188 56.3685 850.6188 45.3135 839.5628 45.3135 839.5628 56.3685 828.5078 56.3685 828.5078 67.4245 839.5628 67.4245"></polygon>
            <polygon id="Fill-15" fill="#1E1E1E" points="878.257 78.481 889.313 78.481 889.313 67.425 878.257 67.425"></polygon>
            <polygon id="Fill-16" fill="#1E1E1E" points="900.3688 56.3689 900.3688 45.3129 889.3128 45.3129 878.2578 45.3129 878.2578 56.3689 889.3128 56.3689 889.3128 67.4249 900.3688 67.4249"></polygon>
            <polygon id="Fill-17" fill="#1E1E1E" points="446.946 280.247 458.002 280.247 458.002 269.191 446.946 269.191"></polygon>
            <polygon id="Fill-18" fill="#1E1E1E" points="446.9465 258.1355 458.0025 258.1355 458.0025 269.1915 469.0575 269.1915 469.0575 258.1355 469.0575 247.0795 458.0025 247.0795 446.9465 247.0795"></polygon>
            <polygon id="Fill-19" fill="#1E1E1E" points="928.008 100.592 939.064 100.592 939.064 89.536 928.008 89.536"></polygon>
            <polygon id="Fill-20" fill="#1E1E1E" points="805.7497 28.1716 805.7497 17.1156 805.7497 6.0606 794.6937 6.0606 794.6937 17.1156 783.6387 17.1156 783.6387 28.1716 794.6937 28.1716"></polygon>
            <polygon id="Fill-21" fill="#1E1E1E" points="999.8698 67.4245 999.8698 56.3685 999.8698 45.3135 988.8138 45.3135 977.7588 45.3135 977.7588 56.3685 977.7588 67.4245 988.8138 67.4245"></polygon>
            <polygon id="Fill-22" fill="#1E1E1E" points="977.758 100.592 988.814 100.592 988.814 89.536 977.758 89.536"></polygon>
            <polygon id="Fill-23" fill="#1E1E1E" points="1027.51 89.536 1038.566 89.536 1038.566 78.48 1027.51 78.48"></polygon>
            <polygon id="Fill-24" fill="#1E1E1E" points="1027.5095 45.3132 1027.5095 56.3692 1038.5655 56.3692 1038.5655 67.4242 1049.6205 67.4242 1049.6205 56.3692 1049.6205 45.3132 1038.5655 45.3132"></polygon>
            <polygon id="Fill-25" fill="#1E1E1E" points="394.847 153.107 405.903 153.107 405.903 142.051 394.847 142.051"></polygon>
            <polygon id="Fill-26" fill="#1E1E1E" points="394.847 292.368 405.903 292.368 405.903 281.312 394.847 281.312"></polygon>
            <polygon id="Fill-27" fill="#1E1E1E" points="11.0556 114.4121 -0.0004 114.4121 -0.0004 125.4681 11.0556 125.4681 11.0556 136.5231 22.1116 136.5231 22.1116 125.4681 22.1116 114.4121"></polygon>
            <polygon id="Fill-28" fill="#1E1E1E" points="71.862 147.5788 71.862 136.5228 60.806 136.5228 60.806 125.4678 71.862 125.4678 71.862 114.4118 60.806 114.4118 49.751 114.4118 49.751 125.4678 49.751 136.5228 49.751 147.5788 60.806 147.5788 60.806 158.6348 60.806 169.6898 71.862 169.6898 82.918 169.6898 82.918 158.6348 71.862 158.6348"></polygon>
            <polygon id="Fill-29" fill="#1E1E1E" points="82.918 125.467 93.974 125.467 93.974 114.411 82.918 114.411"></polygon>
            <polygon id="Fill-30" fill="#1E1E1E" points="110.557 125.467 121.613 125.467 121.613 114.411 110.557 114.411"></polygon>
            <polygon id="Fill-31" fill="#1E1E1E" points="1074.986 28.171 1086.042 28.171 1086.042 17.115 1074.986 17.115"></polygon>
            <polygon id="Fill-32" fill="#1E1E1E" points="11.056 11.061 22.112 11.061 22.112 0.005 11.056 0.005"></polygon>
            <polygon id="Fill-33" fill="#1E1E1E" points="458.002 292.368 469.058 292.368 469.058 281.312 458.002 281.312"></polygon>
            <polygon id="Fill-34" fill="#1E1E1E" points="485.641 292.368 496.697 292.368 496.697 281.312 485.641 281.312"></polygon>
            <polygon id="Fill-35" fill="#1E1E1E" points="160.3073 147.5788 160.3073 136.5228 171.3633 136.5228 171.3633 125.4678 171.3633 114.4118 160.3073 114.4118 149.2513 114.4118 149.2513 125.4678 149.2513 136.5228 149.2513 147.5788 149.2513 158.6348 160.3073 158.6348"></polygon>
            <polygon id="Fill-36" fill="#1E1E1E" points="210.0583 147.5788 210.0583 136.5228 199.0023 136.5228 199.0023 147.5788 199.0023 158.6348 210.0583 158.6348"></polygon>
            <polygon id="Fill-37" fill="#1E1E1E" points="221.114 125.4675 221.114 114.4115 210.058 114.4115 210.058 125.4675 210.058 136.5235 221.114 136.5235"></polygon>
            <polygon id="Fill-38" fill="#1E1E1E" points="248.753 147.579 259.809 147.579 259.809 136.523 248.753 136.523"></polygon>
            <polygon id="Fill-39" fill="#1E1E1E" points="270.8644 125.4675 270.8644 114.4115 259.8084 114.4115 259.8084 125.4675 259.8084 136.5235 270.8644 136.5235"></polygon>
            <polygon id="Fill-40" fill="#1E1E1E" points="828.507 147.579 839.563 147.579 839.563 136.523 828.507 136.523"></polygon>
            <polygon id="Fill-41" fill="#1E1E1E" points="828.507 169.69 839.563 169.69 839.563 158.634 828.507 158.634"></polygon>
            <polygon id="Fill-42" fill="#1E1E1E" points="850.6188 125.4675 850.6188 114.4115 839.5628 114.4115 828.5078 114.4115 828.5078 125.4675 839.5628 125.4675 839.5628 136.5235 850.6188 136.5235"></polygon>
            <polygon id="Fill-43" fill="#1E1E1E" points="900.3688 136.5232 889.3128 136.5232 889.3128 125.4672 889.3128 114.4122 878.2578 114.4122 878.2578 125.4672 878.2578 136.5232 878.2578 147.5792 878.2578 158.6342 878.2578 169.6902 889.3128 169.6902 889.3128 158.6342 889.3128 147.5792 900.3688 147.5792"></polygon>
            <polygon id="Fill-44" fill="#1E1E1E" points="532.1218 153.1062 532.1218 142.0502 521.0658 142.0502 521.0658 153.1062 521.0658 164.1622 521.0658 175.2172 521.0658 186.2732 521.0658 197.3292 532.1218 197.3292 532.1218 186.2732 532.1218 175.2172 543.1778 175.2172 543.1778 164.1622 532.1218 164.1622"></polygon>
            <polygon id="Fill-45" fill="#1E1E1E" points="930.7722 22.6443 930.7722 33.7003 941.8282 33.7003 952.8832 33.7003 952.8832 22.6443 941.8282 22.6443"></polygon>
            <polygon id="Fill-46" fill="#1E1E1E" points="900.369 169.69 911.425 169.69 911.425 158.634 900.369 158.634"></polygon>
            <polygon id="Fill-47" fill="#1E1E1E" points="928.008 147.579 939.064 147.579 939.064 136.523 928.008 136.523"></polygon>
            <polygon id="Fill-48" fill="#1E1E1E" points="928.008 169.69 939.064 169.69 939.064 158.634 928.008 158.634"></polygon>
            <polygon id="Fill-49" fill="#1E1E1E" points="928.0085 114.4118 928.0085 125.4678 939.0645 125.4678 939.0645 136.5228 950.1195 136.5228 950.1195 125.4678 950.1195 114.4118 939.0645 114.4118"></polygon>
            <polygon id="Fill-50" fill="#1E1E1E" points="999.8698 125.4675 999.8698 114.4115 988.8138 114.4115 977.7588 114.4115 977.7588 125.4675 988.8138 125.4675 988.8138 136.5235 999.8698 136.5235"></polygon>
            <polygon id="Fill-51" fill="#1E1E1E" points="977.7585 147.5788 977.7585 158.6348 988.8145 158.6348 988.8145 147.5788 988.8145 136.5228 977.7585 136.5228"></polygon>
            <polygon id="Fill-52" fill="#1E1E1E" points="1027.51 147.579 1038.566 147.579 1038.566 136.523 1027.51 136.523"></polygon>
            <polygon id="Fill-53" fill="#1E1E1E" points="1069.458 147.579 1080.514 147.579 1080.514 136.523 1069.458 136.523"></polygon>
            <polygon id="Fill-54" fill="#1E1E1E" points="1069.458 247.08 1080.514 247.08 1080.514 236.024 1069.458 236.024"></polygon>
            <polygon id="Fill-55" fill="#1E1E1E" points="705.204 153.107 716.26 153.107 716.26 142.051 705.204 142.051"></polygon>
            <polygon id="Fill-56" fill="#1E1E1E" points="286.685 22.645 297.741 22.645 297.741 11.589 286.685 11.589"></polygon>
            <polygon id="Fill-57" fill="#1E1E1E" points="669.3962 164.1618 680.4522 164.1618 680.4522 153.1058 680.4522 142.0508 669.3962 142.0508 658.3402 142.0508 658.3402 153.1058 669.3962 153.1058"></polygon>
            <polygon id="Fill-58" fill="#1E1E1E" points="67.113 0.5333 56.057 0.5333 45.002 0.5333 45.002 11.5893 56.057 11.5893 56.057 22.6443 67.113 22.6443 67.113 11.5893 78.169 11.5893 78.169 0.5333"></polygon>
            <polygon id="Fill-59" fill="#1E1E1E" points="560.8737 153.1062 571.9297 153.1062 571.9297 164.1622 582.9847 164.1622 582.9847 153.1062 582.9847 142.0502 571.9297 142.0502 560.8737 142.0502"></polygon>
            <polygon id="Fill-60" fill="#1E1E1E" points="427.598 175.218 438.654 175.218 438.654 164.162 427.598 164.162"></polygon>
            <polygon id="Fill-61" fill="#1E1E1E" points="449.7101 153.1062 449.7101 142.0502 438.6541 142.0502 427.5991 142.0502 427.5991 153.1062 438.6541 153.1062 438.6541 164.1622 449.7101 164.1622"></polygon>
            <polygon id="Fill-62" fill="#1E1E1E" points="488.4055 175.2175 488.4055 164.1615 499.4615 164.1615 499.4615 153.1065 499.4615 142.0505 488.4055 142.0505 488.4055 153.1065 477.3495 153.1065 477.3495 164.1615 477.3495 175.2175 477.3495 186.2735 488.4055 186.2735"></polygon>
            <polygon id="Fill-63" fill="#1E1E1E" points="1033.038 28.172 1044.094 28.172 1044.094 17.116 1033.038 17.116"></polygon>
            <polygon id="Fill-64" fill="#1E1E1E" points="471.822 216.913 482.878 216.913 482.878 205.857 471.822 205.857"></polygon>
            <polygon id="Fill-65" fill="#1E1E1E" points="444.1823 205.8571 444.1823 194.8011 433.1263 194.8011 422.0713 194.8011 422.0713 205.8571 422.0713 216.9131 433.1263 216.9131 444.1823 216.9131"></polygon>
            <polygon id="Fill-66" fill="#1E1E1E" points="805.7497 194.8015 805.7497 183.7455 794.6937 183.7455 783.6387 183.7455 783.6387 194.8015 783.6387 205.8575 794.6937 205.8575 805.7497 205.8575"></polygon>
            <polygon id="Fill-67" fill="#1E1E1E" points="303.2687 303.4236 303.2687 292.3676 303.2687 281.3126 292.2127 281.3126 281.1577 281.3126 281.1577 292.3676 281.1577 303.4236 292.2127 303.4236"></polygon>
            <polygon id="Fill-68" fill="#1E1E1E" points="127.6911 174.2175 127.6911 185.2735 138.7471 185.2735 138.7471 196.3285 149.8021 196.3285 149.8021 185.2735 149.8021 174.2175 138.7471 174.2175"></polygon>
            <polygon id="Fill-69" fill="#1E1E1E" points="177.442 207.384 188.498 207.384 188.498 196.328 177.442 196.328"></polygon>
            <polygon id="Fill-70" fill="#1E1E1E" points="188.4973 185.2732 188.4973 196.3292 199.5533 196.3292 199.5533 185.2732 199.5533 174.2172 188.4973 174.2172"></polygon>
            <polygon id="Fill-71" fill="#1E1E1E" points="281.1574 194.8015 292.2134 194.8015 292.2134 183.7455 292.2134 172.6905 281.1574 172.6905 270.1014 172.6905 270.1014 183.7455 281.1574 183.7455"></polygon>
            <polygon id="Fill-72" fill="#1E1E1E" points="227.192 218.44 238.248 218.44 238.248 207.384 227.192 207.384"></polygon>
            <polygon id="Fill-73" fill="#1E1E1E" points="229.299 183.746 240.355 183.746 240.355 172.689 229.299 172.689"></polygon>
            <polygon id="Fill-74" fill="#1E1E1E" points="318.324 292.368 329.38 292.368 329.38 281.312 318.324 281.312"></polygon>
            <polygon id="Fill-75" fill="#1E1E1E" points="292.213 175.217 303.269 175.217 303.269 164.161 292.213 164.161"></polygon>
            <polygon id="Fill-76" fill="#1E1E1E" points="323.8522 249.8767 312.7962 249.8767 301.7412 249.8767 290.6852 249.8767 279.6292 249.8767 279.6292 260.9327 290.6852 260.9327 301.7412 260.9327 312.7962 260.9327 323.8522 260.9327"></polygon>
            <polygon id="Fill-77" fill="#1E1E1E" points="318.324 201.857 329.38 201.857 329.38 190.801 318.324 190.801"></polygon>
            <polygon id="Fill-78" fill="#1E1E1E" points="351.491 216.913 362.547 216.913 362.547 205.857 351.491 205.857"></polygon>
            <polygon id="Fill-79" fill="#1E1E1E" points="138.747 222.968 149.803 222.968 149.803 211.912 138.747 211.912"></polygon>
            <polygon id="Fill-80" fill="#1E1E1E" points="351.4914 172.6902 351.4914 183.7462 351.4914 194.8012 362.5474 194.8012 373.6024 194.8012 373.6024 183.7462 373.6024 172.6902 362.5474 172.6902"></polygon>
            <polygon id="Fill-81" fill="#1E1E1E" points="842.327 236.024 853.383 236.024 853.383 224.968 842.327 224.968"></polygon>
            <polygon id="Fill-82" fill="#1E1E1E" points="842.3268 191.8015 842.3268 202.8575 853.3828 202.8575 853.3828 213.9125 864.4378 213.9125 864.4378 202.8575 864.4378 191.8015 853.3828 191.8015"></polygon>
            <polygon id="Fill-83" fill="#1E1E1E" points="892.078 247.08 903.134 247.08 903.134 236.024 892.078 236.024"></polygon>
            <polygon id="Fill-84" fill="#1E1E1E" points="11.056 222.44 22.112 222.44 22.112 211.384 11.056 211.384"></polygon>
            <polygon id="Fill-85" fill="#1E1E1E" points="610.7702 17.1159 610.7702 6.0599 599.7142 6.0599 588.6592 6.0599 588.6592 17.1159 588.6592 28.1719 599.7142 28.1719 610.7702 28.1719"></polygon>
            <polygon id="Fill-86" fill="#1E1E1E" points="746.569 153.107 757.625 153.107 757.625 142.051 746.569 142.051"></polygon>
            <polygon id="Fill-87" fill="#1E1E1E" points="752.096 205.858 763.152 205.858 763.152 194.801 752.096 194.801"></polygon>
            <polygon id="Fill-88" fill="#1E1E1E" points="515.1843 281.8405 515.1843 292.8965 526.2403 292.8965 526.2403 281.8405 526.2403 270.7845 515.1843 270.7845"></polygon>
            <polygon id="Fill-89" fill="#1E1E1E" points="1013.6901 202.8571 1013.6901 191.8011 1002.6341 191.8011 1002.6341 202.8571 991.5791 202.8571 991.5791 213.9131 1002.6341 213.9131 1013.6901 213.9131"></polygon>
            <polygon id="Fill-90" fill="#1E1E1E" points="658.34 211.385 669.396 211.385 669.396 200.329 658.34 200.329"></polygon>
            <polygon id="Fill-91" fill="#1E1E1E" points="680.4518 189.2732 680.4518 178.2172 669.3958 178.2172 658.3408 178.2172 658.3408 189.2732 669.3958 189.2732 669.3958 200.3292 680.4518 200.3292"></polygon>
            <polygon id="Fill-92" fill="#1E1E1E" points="568.2116 28.1716 568.2116 17.1156 568.2116 6.0606 557.1556 6.0606 546.1006 6.0606 546.1006 17.1156 557.1556 17.1156 557.1556 28.1716"></polygon>
            <path d="M301.088,101.576 L301.088,127 L283.728,127 L283.728,47.48 L330.432,47.48 L344.768,61.704 L344.768,87.352 L330.432,101.576 L301.088,101.576 Z M322.928,63.72 L301.088,63.72 L301.088,85.336 L322.928,85.336 L327.408,80.856 L327.408,68.2 L322.928,63.72 Z M394.496,63.72 L372.208,63.72 L372.208,81.192 L394.496,81.192 L398.528,77.048 L398.528,67.864 L394.496,63.72 Z M399.2,98.664 L417.68,117.592 L405.248,129.8 L373.664,97.432 L372.208,97.432 L372.208,127 L354.848,127 L354.848,47.48 L403.456,47.48 L415.888,59.8 L415.888,85.112 L403.456,97.432 L399.424,97.432 L395.504,95.528 L395.28,95.864 L399.2,98.664 Z M441.088,47.48 L474.352,47.48 L489.92,61.592 L489.92,112.888 L474.352,127 L441.088,127 L425.52,112.888 L425.52,61.592 L441.088,47.48 Z M472.56,68.424 L467.408,63.72 L448.032,63.72 L442.88,68.424 L442.88,106.056 L448.032,110.76 L467.408,110.76 L472.56,106.056 L472.56,68.424 Z M511.424,127 L495.52,111.208 L507.28,99.336 L518.816,110.76 L531.472,110.76 L535.952,106.28 L535.952,63.72 L520.496,63.72 L520.496,47.48 L553.312,47.48 L553.312,112.664 L538.976,127 L511.424,127 Z M565.632,127 L565.632,47.48 L620.848,47.48 L620.848,63.72 L582.992,63.72 L582.992,77.384 L616.144,77.384 L616.144,93.624 L582.992,93.624 L582.992,110.76 L620.848,110.76 L620.848,127 L565.632,127 Z M629.808,127 L629.808,47.48 L647.168,47.48 L647.168,110.76 L683.904,110.76 L683.904,127 L629.808,127 Z M691.744,127 L691.744,47.48 L746.96,47.48 L746.96,63.72 L709.104,63.72 L709.104,77.384 L742.256,77.384 L742.256,93.624 L709.104,93.624 L709.104,110.76 L746.96,110.76 L746.96,127 L691.744,127 Z M795.568,63.72 L773.28,63.72 L773.28,81.192 L795.568,81.192 L799.6,77.048 L799.6,67.864 L795.568,63.72 Z M800.272,98.664 L818.752,117.592 L806.32,129.8 L774.736,97.432 L773.28,97.432 L773.28,127 L755.92,127 L755.92,47.48 L804.528,47.48 L816.96,59.8 L816.96,85.112 L804.528,97.432 L800.496,97.432 L796.576,95.528 L796.352,95.864 L800.272,98.664 Z" id="PROJELER" fill="#000000"></path>
        </g>
    </g>
</svg>