<?xml version="1.0" encoding="UTF-8"?>
<svg width="1078px" height="178px" viewBox="0 0 1078 178" version="1.1" xmlns="http://www.w3.org/2000/svg" xmlns:xlink="http://www.w3.org/1999/xlink">
    <!-- Generator: Sketch 50 (54983) - http://www.bohemiancoding.com/sketch -->
    <title>projects_footer_rects</title>
    <desc>Created with Sketch.</desc>
    <defs></defs>
    <g id="Page-1" stroke="none" stroke-width="1" fill="none" fill-rule="evenodd">
        <g id="projects_footer_rects" fill="#1E1E1E">
            <polygon id="Fill-93" points="908.9528 86.57 897.8968 86.57 897.8968 97.627 897.8968 108.681 897.8968 119.738 908.9528 119.738 908.9528 108.681 908.9528 97.627 920.0088 97.627 920.0088 86.57 920.0088 75.515 908.9528 75.515"></polygon>
            <polygon id="Fill-94" points="947.6472 108.6814 947.6472 119.7384 958.7042 119.7384 958.7042 108.6814 958.7042 97.6264 947.6472 97.6264"></polygon>
            <polygon id="Fill-95" points="958.7038 86.57 958.7038 97.627 969.7588 97.627 969.7588 86.57 969.7588 75.515 958.7038 75.515"></polygon>
            <polygon id="Fill-96" points="997.3981 75.5154 997.3981 86.5704 1008.4541 86.5704 1008.4541 97.6264 1019.5091 97.6264 1019.5091 86.5704 1019.5091 75.5154 1008.4541 75.5154"></polygon>
            <polygon id="Fill-97" points="1055.149 130.793 1066.205 130.793 1066.205 119.738 1055.149 119.738"></polygon>
            <polygon id="Fill-98" points="1066.2048 86.57 1055.1488 86.57 1055.1488 97.627 1066.2048 97.627 1077.2608 97.627 1077.2608 86.57 1077.2608 75.515 1066.2048 75.515"></polygon>
            <polygon id="Fill-99" points="947.6472 144.613 947.6472 155.669 958.7042 155.669 958.7042 166.724 969.7582 166.724 969.7582 155.669 969.7582 144.613 958.7042 144.613"></polygon>
            <polygon id="Fill-100" points="947.647 177.78 958.704 177.78 958.704 166.724 947.647 166.724"></polygon>
            <polygon id="Fill-101" points="1066.2048 155.6687 1066.2048 166.7247 1077.2608 166.7247 1077.2608 155.6687 1077.2608 144.6127 1066.2048 144.6127"></polygon>
            <polygon id="Fill-102" points="281.817 101.773 292.873 101.773 292.873 90.717 281.817 90.717"></polygon>
            <polygon id="Fill-103" points="281.8176 57.5495 281.8176 68.6055 292.8736 68.6055 292.8736 79.6605 303.9286 79.6605 303.9286 68.6055 303.9286 57.5495 292.8736 57.5495"></polygon>
            <polygon id="Fill-104" points="342.624 68.605 353.68 68.605 353.68 57.549 342.624 57.549"></polygon>
            <polygon id="Fill-105" points="381.319 57.5495 381.319 68.6055 381.319 79.6605 392.375 79.6605 403.43 79.6605 403.43 68.6055 403.43 57.5495 392.375 57.5495"></polygon>
            <polygon id="Fill-106" points="381.319 112.828 392.375 112.828 392.375 101.772 381.319 101.772"></polygon>
            <polygon id="Fill-107" points="431.0695 57.5495 431.0695 68.6055 442.1255 68.6055 442.1255 79.6605 453.1805 79.6605 453.1805 68.6055 453.1805 57.5495 442.1255 57.5495"></polygon>
            <polygon id="Fill-108" points="431.07 90.717 442.126 90.717 442.126 79.661 431.07 79.661"></polygon>
            <polygon id="Fill-109" points="431.069 112.828 442.125 112.828 442.125 101.772 431.069 101.772"></polygon>
            <polygon id="Fill-110" points="480.82 90.717 491.876 90.717 491.876 79.661 480.82 79.661"></polygon>
            <polygon id="Fill-111" points="491.8757 68.6052 491.8757 79.6612 502.9317 79.6612 502.9317 68.6052 502.9317 57.5492 491.8757 57.5492"></polygon>
            <polygon id="Fill-112" points="281.8176 126.6472 281.8176 137.7032 281.8176 148.7582 292.8736 148.7582 303.9286 148.7582 303.9286 137.7032 303.9286 126.6472 292.8736 126.6472"></polygon>
            <polygon id="Fill-113" points="381.319 159.814 392.375 159.814 392.375 148.758 381.319 148.758"></polygon>
            <polygon id="Fill-114" points="480.82 130.87 491.876 130.87 491.876 119.814 480.82 119.814"></polygon>
            <polygon id="Fill-115" points="563.9294 11.945 563.9294 23 574.9854 23 574.9854 11.945 574.9854 0.888 563.9294 0.888"></polygon>
            <polygon id="Fill-116" points="602.6247 0.8884 602.6247 11.9454 613.6807 11.9454 613.6807 22.9994 624.7357 22.9994 624.7357 11.9454 624.7357 0.8884 613.6807 0.8884"></polygon>
            <polygon id="Fill-117" points="602.624 45.112 613.68 45.112 613.68 34.056 602.624 34.056"></polygon>
            <polygon id="Fill-118" points="652.3757 45.112 652.3757 56.168 663.4317 56.168 663.4317 45.112 663.4317 34.056 652.3757 34.056"></polygon>
            <polygon id="Fill-119" points="652.3757 0.8884 652.3757 11.9454 663.4317 11.9454 663.4317 22.9994 674.4867 22.9994 674.4867 11.9454 674.4867 0.8884 663.4317 0.8884"></polygon>
            <polygon id="Fill-120" points="702.1257 0.8884 702.1257 11.9454 713.1817 11.9454 713.1817 22.9994 724.2367 22.9994 724.2367 11.9454 724.2367 0.8884 713.1817 0.8884"></polygon>
            <polygon id="Fill-121" points="702.126 34.056 713.182 34.056 713.182 22.999 702.126 22.999"></polygon>
            <polygon id="Fill-122" points="762.932 11.945 773.988 11.945 773.988 0.888 762.932 0.888"></polygon>
            <polygon id="Fill-123" points="830.415 86.571 841.471 86.571 841.471 75.515 830.415 75.515"></polygon>
            <polygon id="Fill-124" points="563.9294 81.0427 552.8734 81.0427 552.8734 92.0987 563.9294 92.0987 574.9854 92.0987 574.9854 81.0427 574.9854 69.9867 563.9294 69.9867"></polygon>
            <polygon id="Fill-125" points="602.6247 69.987 602.6247 81.043 602.6247 92.098 613.6807 92.098 624.7357 92.098 624.7357 81.043 624.7357 69.987 613.6807 69.987"></polygon>
            <polygon id="Fill-126" points="602.625 125.265 613.681 125.265 613.681 114.209 602.625 114.209"></polygon>
            <polygon id="Fill-127" points="652.376 103.154 663.432 103.154 663.432 92.098 652.376 92.098"></polygon>
            <polygon id="Fill-128" points="652.376 125.265 663.432 125.265 663.432 114.209 652.376 114.209"></polygon>
            <polygon id="Fill-129" points="751.877 103.154 762.933 103.154 762.933 92.098 751.877 92.098"></polygon>
            <polygon id="Fill-130" points="751.877 125.265 762.933 125.265 762.933 114.209 751.877 114.209"></polygon>
            <polygon id="Fill-131" points="751.8766 69.987 751.8766 81.043 762.9326 81.043 762.9326 92.098 773.9876 92.098 773.9876 81.043 773.9876 69.987 762.9326 69.987"></polygon>
            <polygon id="Fill-132" points="790.571 11.945 790.571 23 801.627 23 801.627 11.945 801.627 0.888 790.571 0.888"></polygon>
            <polygon id="Fill-133" points="0.842 29.9099 0.842 40.9659 0.842 52.0209 11.898 52.0209 22.954 52.0209 22.954 40.9659 22.954 29.9099 11.898 29.9099"></polygon>
            <polygon id="Fill-134" points="0.842 85.189 11.898 85.189 11.898 74.133 0.842 74.133"></polygon>
            <polygon id="Fill-135" points="50.593 29.9099 50.593 40.9659 61.649 40.9659 61.649 52.0209 72.704 52.0209 72.704 40.9659 72.704 29.9099 61.649 29.9099"></polygon>
            <polygon id="Fill-136" points="50.593 63.077 61.649 63.077 61.649 52.021 50.593 52.021"></polygon>
            <polygon id="Fill-137" points="50.593 85.189 61.649 85.189 61.649 74.133 50.593 74.133"></polygon>
            <polygon id="Fill-138" points="111.3991 40.9655 100.3431 40.9655 100.3431 52.0215 100.3431 63.0765 100.3431 74.1325 111.3991 74.1325 111.3991 63.0765 111.3991 52.0215 122.4551 52.0215 122.4551 40.9655 122.4551 29.9095 111.3991 29.9095"></polygon>
            <polygon id="Fill-139" points="150.0939 29.9099 150.0939 40.9659 161.1499 40.9659 161.1499 52.0209 172.2049 52.0209 172.2049 40.9659 172.2049 29.9099 161.1499 29.9099"></polygon>
            <polygon id="Fill-140" points="150.094 63.077 161.15 63.077 161.15 52.021 150.094 52.021"></polygon>
            <polygon id="Fill-141" points="150.094 85.189 161.15 85.189 161.15 74.133 150.094 74.133"></polygon>
            <polygon id="Fill-142" points="210.9001 40.9655 199.8441 40.9655 199.8441 52.0215 210.9001 52.0215 221.9561 52.0215 221.9561 40.9655 221.9561 29.9095 210.9001 29.9095"></polygon>
            <polygon id="Fill-143" points="431.0695 143.2312 431.0695 154.2872 431.0695 165.3422 442.1255 165.3422 442.1255 154.2872 442.1255 143.2312 442.1255 132.1752 431.0695 132.1752"></polygon>
            <polygon id="Fill-144" points="11.8981 110.0642 0.8421 110.0642 0.8421 121.1192 11.8981 121.1192 22.9541 121.1192 22.9541 110.0642 22.9541 99.0072 11.8981 99.0072"></polygon>
            <polygon id="Fill-145" points="61.649 110.064 72.705 110.064 72.705 99.007 61.649 99.007"></polygon>
            <polygon id="Fill-146" points="150.0939 132.1755 150.0939 143.2315 161.1499 143.2315 161.1499 132.1755 161.1499 121.1185 150.0939 121.1185"></polygon>
            <polygon id="Fill-147" points="161.1496 110.0642 161.1496 121.1192 172.2056 121.1192 172.2056 110.0642 172.2056 99.0072 161.1496 99.0072"></polygon>
        </g>
    </g>
</svg>