<?xml version="1.0" encoding="UTF-8"?>
<svg width="445px" height="481px" viewBox="0 0 445 481" version="1.1" xmlns="http://www.w3.org/2000/svg" xmlns:xlink="http://www.w3.org/1999/xlink">
    <g id="HOME" stroke="none" stroke-width="1" fill="none" fill-rule="evenodd">
        <g id="SCROLLDOWN-PAGE" transform="translate(-287.000000, -513.000000)" fill="#000000">
            <g id="HOME-PAGE" transform="translate(-2.000000, 26.000000)">
                <path d="M349.8,527.792 L349.8,487.76 L372.12,487.76 L372.12,590 L349.8,590 L349.8,548.672 L315.96,548.672 L315.96,590 L293.64,590 L293.64,487.76 L315.96,487.76 L315.96,527.792 L349.8,527.792 Z M413.736,487.76 L437.064,487.76 L470.04,585.824 L449.016,592.88 L441.24,569.984 L408.84,569.984 L401.784,592.88 L380.76,585.824 L413.736,487.76 Z M435.624,550.544 L427.56,526.64 L425.688,515.984 L425.112,515.984 L423.24,526.64 L415.176,550.544 L435.624,550.544 Z M528.648,569.12 L542.472,555.296 L557.736,570.56 L538.296,590 L495.672,590 L477.24,571.568 L477.24,506.192 L495.672,487.76 L537.288,487.76 L555.72,506.192 L555.72,525.2 L533.4,525.2 L533.4,514.4 L527.64,508.64 L505.32,508.64 L499.56,514.4 L499.56,563.36 L505.32,569.12 L528.648,569.12 Z M339.432,658.984 L370.392,705.784 L352.248,717.88 L323.88,675.112 L315.96,683.896 L315.96,715 L293.64,715 L293.64,612.76 L315.96,612.76 L315.96,652.072 L353.976,609.88 L370.392,624.568 L339.432,658.984 Z M379.176,715 L379.176,612.76 L450.168,612.76 L450.168,633.64 L401.496,633.64 L401.496,651.208 L444.12,651.208 L444.12,672.088 L401.496,672.088 L401.496,694.12 L450.168,694.12 L450.168,715 L379.176,715 Z M518.712,678.568 L542.472,702.904 L526.488,718.6 L485.88,676.984 L484.008,676.984 L484.008,715 L461.688,715 L461.688,612.76 L524.184,612.76 L540.168,628.6 L540.168,661.144 L524.184,676.984 L519,676.984 L513.96,674.536 L513.672,674.968 L518.712,678.568 Z M512.664,633.64 L484.008,633.64 L484.008,656.104 L512.664,656.104 L517.848,650.776 L517.848,638.968 L512.664,633.64 Z M290.184,775.488 L290.184,756.048 L308.472,737.76 L346.344,737.76 L367.08,744.816 L360.312,764.832 L342.168,758.64 L317.4,758.64 L312.504,763.536 L312.504,767.136 L314.376,771.024 L360.312,790.896 L366.36,802.272 L366.36,821.712 L348.072,840 L310.056,840 L289.32,832.944 L296.088,812.928 L314.232,819.12 L339.144,819.12 L344.04,814.224 L344.04,810.624 L342.168,806.736 L296.232,786.864 L290.184,775.488 Z M402.36,807.312 L402.36,840 L380.04,840 L380.04,737.76 L440.088,737.76 L458.52,756.048 L458.52,789.024 L440.088,807.312 L402.36,807.312 Z M430.44,758.64 L402.36,758.64 L402.36,786.432 L430.44,786.432 L436.2,780.672 L436.2,764.4 L430.44,758.64 Z M495.816,737.76 L519.144,737.76 L552.12,835.824 L531.096,842.88 L523.32,819.984 L490.92,819.984 L483.864,842.88 L462.84,835.824 L495.816,737.76 Z M517.704,800.544 L509.64,776.64 L507.768,765.984 L507.192,765.984 L505.32,776.64 L497.256,800.544 L517.704,800.544 Z M610.728,819.12 L624.552,805.296 L639.816,820.56 L620.376,840 L577.752,840 L559.32,821.568 L559.32,756.192 L577.752,737.76 L619.368,737.76 L637.8,756.192 L637.8,775.2 L615.48,775.2 L615.48,764.4 L609.72,758.64 L587.4,758.64 L581.64,764.4 L581.64,813.36 L587.4,819.12 L610.728,819.12 Z M649.896,840 L649.896,737.76 L720.888,737.76 L720.888,758.64 L672.216,758.64 L672.216,776.208 L714.84,776.208 L714.84,797.088 L672.216,797.088 L672.216,819.12 L720.888,819.12 L720.888,840 L649.896,840 Z M479.4,961.112 L479.4,948.872 L485.448,942.824 L497.112,942.824 L503.88,948.872 L503.88,961.112 L497.832,967.16 L485.448,967.16 L479.4,961.112 Z M562.488,965 L512.52,965 L512.52,945.56 L526.344,945.56 L526.344,882.2 L512.52,882.2 L512.52,862.76 L562.488,862.76 L562.488,882.2 L548.664,882.2 L548.664,945.56 L562.488,945.56 L562.488,965 Z M571.992,900.488 L571.992,881.048 L590.28,862.76 L628.152,862.76 L648.888,869.816 L642.12,889.832 L623.976,883.64 L599.208,883.64 L594.312,888.536 L594.312,892.136 L596.184,896.024 L642.12,915.896 L648.168,927.272 L648.168,946.712 L629.88,965 L591.864,965 L571.128,957.944 L577.896,937.928 L596.04,944.12 L620.952,944.12 L625.848,939.224 L625.848,935.624 L623.976,931.736 L578.04,911.864 L571.992,900.488 Z M705.048,883.64 L705.048,965 L682.728,965 L682.728,883.64 L654.648,883.64 L654.648,862.76 L733.128,862.76 L733.128,883.64 L705.048,883.64 Z" id="hackerspace_ist"></path>
            </g>
        </g>
    </g>
</svg>